G75*
G70*
%OFA0B0*%
%FSLAX24Y24*%
%IPPOS*%
%LPD*%
%AMOC8*
5,1,8,0,0,1.08239X$1,22.5*
%
%ADD10C,0.1330*%
%ADD11C,0.0680*%
%ADD12C,0.0600*%
%ADD13C,0.0820*%
%ADD14OC8,0.0600*%
%ADD15R,0.0946X0.0316*%
%ADD16OC8,0.0680*%
%ADD17C,0.2080*%
%ADD18R,0.0476X0.0476*%
D10*
X001143Y002900D03*
X018943Y001950D03*
X001143Y026500D03*
X018943Y027450D03*
D11*
X017393Y024500D02*
X017393Y023900D01*
X016393Y023900D02*
X016393Y024500D01*
X015393Y024500D02*
X015393Y023900D01*
X014393Y023900D02*
X014393Y024500D01*
X013393Y024500D02*
X013393Y023900D01*
X012393Y023900D02*
X012393Y024500D01*
X011393Y024500D02*
X011393Y023900D01*
X010393Y023900D02*
X010393Y024500D01*
X008793Y024500D02*
X008793Y023900D01*
X007793Y023900D02*
X007793Y024500D01*
X006793Y024500D02*
X006793Y023900D01*
X005793Y023900D02*
X005793Y024500D01*
X004793Y024500D02*
X004793Y023900D01*
X003793Y023900D02*
X003793Y024500D01*
X002793Y024500D02*
X002793Y023900D01*
X001793Y023900D02*
X001793Y024500D01*
X005393Y005500D02*
X005393Y004900D01*
X006393Y004900D02*
X006393Y005500D01*
X007393Y005500D02*
X007393Y004900D01*
X008393Y004900D02*
X008393Y005500D01*
X009393Y005500D02*
X009393Y004900D01*
X010393Y004900D02*
X010393Y005500D01*
X012393Y005500D02*
X012393Y004900D01*
X013393Y004900D02*
X013393Y005500D01*
X014393Y005500D02*
X014393Y004900D01*
X015393Y004900D02*
X015393Y005500D01*
X016393Y005500D02*
X016393Y004900D01*
X017393Y004900D02*
X017393Y005500D01*
D12*
X024993Y007890D02*
X024993Y008410D01*
X026793Y008540D02*
X026793Y009060D01*
X026843Y010090D02*
X026843Y010610D01*
X024993Y010890D02*
X024993Y011410D01*
X024993Y012390D02*
X024993Y012910D01*
X026843Y013090D02*
X026843Y013610D01*
X026843Y014490D02*
X026843Y015010D01*
X024993Y015390D02*
X024993Y015910D01*
X024993Y016790D02*
X024993Y017310D01*
X026843Y017490D02*
X026843Y018010D01*
X026843Y018990D02*
X026843Y019510D01*
X024993Y019790D02*
X024993Y020310D01*
X024993Y021290D02*
X024993Y021810D01*
X026843Y021990D02*
X026843Y022510D01*
X024993Y024290D02*
X024993Y024810D01*
X015093Y017410D02*
X015093Y016890D01*
X014093Y016890D02*
X014093Y017410D01*
X013093Y017410D02*
X013093Y016890D01*
X012093Y016890D02*
X012093Y017410D01*
X011093Y017410D02*
X011093Y016890D01*
X010093Y016890D02*
X010093Y017410D01*
X009093Y017410D02*
X009093Y016890D01*
X008093Y016890D02*
X008093Y017410D01*
X007093Y017410D02*
X007093Y016890D01*
X006093Y016890D02*
X006093Y017410D01*
X005093Y017410D02*
X005093Y016890D01*
X004093Y016890D02*
X004093Y017410D01*
X003093Y017410D02*
X003093Y016890D01*
X002093Y016890D02*
X002093Y017410D01*
X002093Y014410D02*
X002093Y013890D01*
X003093Y013890D02*
X003093Y014410D01*
X004093Y014410D02*
X004093Y013890D01*
X005093Y013890D02*
X005093Y014410D01*
X006093Y014410D02*
X006093Y013890D01*
X007093Y013890D02*
X007093Y014410D01*
X008093Y014410D02*
X008093Y013890D01*
X009093Y013890D02*
X009093Y014410D01*
X010093Y014410D02*
X010093Y013890D01*
X011093Y013890D02*
X011093Y014410D01*
X012093Y014410D02*
X012093Y013890D01*
X013093Y013890D02*
X013093Y014410D01*
X014093Y014410D02*
X014093Y013890D01*
X015093Y013890D02*
X015093Y014410D01*
X026793Y006060D02*
X026793Y005540D01*
D13*
X027693Y005800D03*
X025893Y008100D03*
X027693Y008800D03*
X027793Y010300D03*
X025893Y011100D03*
X025893Y012700D03*
X027793Y013300D03*
X027793Y014800D03*
X025893Y015700D03*
X025893Y017000D03*
X027793Y017800D03*
X027693Y019200D03*
X025893Y020000D03*
X025893Y021500D03*
X027693Y022200D03*
X025893Y024500D03*
X019993Y022300D03*
X019993Y021300D03*
X019993Y020300D03*
X019993Y019300D03*
X019993Y018300D03*
X019993Y017300D03*
X019993Y016300D03*
X019993Y015300D03*
X019993Y014000D03*
X019993Y013000D03*
X019993Y012000D03*
X019993Y011000D03*
X019993Y010000D03*
X019993Y009000D03*
X019993Y008000D03*
X019993Y007000D03*
X016993Y007000D03*
X016993Y008000D03*
X016993Y009000D03*
X016993Y010000D03*
X016993Y011000D03*
X016993Y012000D03*
X016993Y013000D03*
X016993Y014000D03*
X016993Y015300D03*
X016993Y016300D03*
X016993Y017300D03*
X016993Y018300D03*
X016993Y019300D03*
X016993Y020300D03*
X016993Y021300D03*
X016993Y022300D03*
X014393Y021000D03*
X014393Y020000D03*
X013693Y018800D03*
X011593Y020000D03*
X011593Y021000D03*
X009693Y021800D03*
X009693Y018800D03*
X010693Y018800D03*
X010193Y012250D03*
X011193Y012250D03*
X012193Y012250D03*
X008093Y009600D03*
X007093Y009700D03*
X006093Y009600D03*
X005093Y009700D03*
X004093Y009600D03*
X003093Y009700D03*
X003823Y006940D03*
X003823Y005160D03*
X001263Y005160D03*
X001263Y006940D03*
D14*
X002893Y008200D03*
X003893Y008200D03*
D15*
X021620Y008150D03*
X021620Y008650D03*
X021620Y009150D03*
X021620Y009650D03*
X021620Y010400D03*
X021620Y010900D03*
X021620Y011400D03*
X021620Y011900D03*
X021620Y012650D03*
X021620Y013150D03*
X021620Y013650D03*
X021620Y014150D03*
X021620Y014800D03*
X021620Y015300D03*
X021620Y015800D03*
X021620Y016300D03*
X021620Y017050D03*
X021620Y017550D03*
X021620Y018050D03*
X021620Y018550D03*
X021620Y019300D03*
X021620Y019800D03*
X021620Y020300D03*
X021620Y020800D03*
X021620Y021550D03*
X021620Y022050D03*
X021620Y022550D03*
X021620Y023050D03*
X023667Y023050D03*
X023667Y022550D03*
X023667Y022050D03*
X023667Y021550D03*
X023667Y020800D03*
X023667Y020300D03*
X023667Y019800D03*
X023667Y019300D03*
X023667Y018550D03*
X023667Y018050D03*
X023667Y017550D03*
X023667Y017050D03*
X023667Y016300D03*
X023667Y015800D03*
X023667Y015300D03*
X023667Y014800D03*
X023667Y014150D03*
X023667Y013650D03*
X023667Y013150D03*
X023667Y012650D03*
X023667Y011900D03*
X023667Y011400D03*
X023667Y010900D03*
X023667Y010400D03*
X023667Y009650D03*
X023667Y009150D03*
X023667Y008650D03*
X023667Y008150D03*
X023667Y007400D03*
X023667Y006900D03*
X023667Y006400D03*
X023667Y005900D03*
X021620Y005900D03*
X021620Y006400D03*
X021620Y006900D03*
X021620Y007400D03*
D16*
X030133Y008320D03*
X031253Y007780D03*
X031253Y008870D03*
X031253Y009950D03*
X030133Y009410D03*
X030133Y010500D03*
X031253Y011040D03*
X030133Y011580D03*
X031253Y012130D03*
X031253Y013210D03*
X030133Y012670D03*
X030133Y013760D03*
X031253Y014300D03*
X030133Y014840D03*
X031253Y015390D03*
X030133Y015930D03*
X030133Y017020D03*
X031253Y017560D03*
X031253Y016470D03*
X030133Y018100D03*
X031253Y018650D03*
X030133Y019190D03*
X030133Y020280D03*
X031253Y020820D03*
X031253Y019730D03*
D17*
X030693Y023560D03*
X030693Y005040D03*
D18*
X022393Y007400D03*
X020893Y006400D03*
X020893Y008650D03*
X022393Y009700D03*
X020893Y010900D03*
X022393Y011900D03*
X020893Y013150D03*
X022393Y014200D03*
X020893Y015300D03*
X022393Y016300D03*
X020893Y017550D03*
X022393Y018600D03*
X020893Y019800D03*
X022393Y020800D03*
X020893Y022050D03*
X022393Y023000D03*
X027843Y020650D03*
M02*
