%
M48
M72
T01C0.0236
T02C0.0315
T03C0.0320
T04C0.0354
T05C0.0400
T06C0.1250
T07C0.1300
%
T01
X20893Y6400
X22393Y7400
X20893Y8650
X22393Y9700
X20893Y10900
X22393Y11900
X20893Y13150
X22393Y14200
X20893Y15300
X22393Y16300
X20893Y17550
X22393Y18600
X20893Y19800
X22393Y20800
X20893Y22050
X22393Y23000
X27843Y20650
T02
X12193Y12250
X11193Y12250
X10193Y12250
T03
X10093Y14150
X9093Y14150
X8093Y14150
X7093Y14150
X6093Y14150
X5093Y14150
X4093Y14150
X3093Y14150
X2093Y14150
X2093Y17150
X3093Y17150
X4093Y17150
X5093Y17150
X6093Y17150
X7093Y17150
X8093Y17150
X9093Y17150
X10093Y17150
X11093Y17150
X12093Y17150
X13093Y17150
X14093Y17150
X15093Y17150
X14393Y20000
X14393Y21000
X11593Y21000
X11593Y20000
X11093Y14150
X12093Y14150
X13093Y14150
X14093Y14150
X15093Y14150
X24993Y12650
X26843Y13350
X26843Y14750
X24993Y15650
X24993Y17050
X26843Y17750
X26843Y19250
X24993Y20050
X24993Y21550
X26843Y22250
X24993Y24550
X24993Y11150
X26843Y10350
X26793Y8800
X24993Y8150
X26793Y5800
X3893Y8200
X2893Y8200
T04
X9693Y18800
X10693Y18800
X13693Y18800
X16993Y18300
X16993Y19300
X16993Y20300
X16993Y21300
X16993Y22300
X19993Y22300
X19993Y21300
X19993Y20300
X19993Y19300
X19993Y18300
X19993Y17300
X19993Y16300
X19993Y15300
X19993Y14000
X19993Y13000
X19993Y12000
X19993Y11000
X19993Y10000
X19993Y9000
X19993Y8000
X19993Y7000
X16993Y7000
X16993Y8000
X16993Y9000
X16993Y10000
X16993Y11000
X16993Y12000
X16993Y13000
X16993Y14000
X16993Y15300
X16993Y16300
X16993Y17300
X9693Y21800
X25893Y21500
X25893Y20000
X27693Y19200
X27793Y17800
X25893Y17000
X25893Y15700
X27793Y14800
X27793Y13300
X25893Y12700
X25893Y11100
X27793Y10300
X27693Y8800
X25893Y8100
X27693Y5800
X27693Y22200
X25893Y24500
T05
X30133Y20280
X30133Y19190
X31253Y18650
X30133Y18100
X31253Y17560
X31253Y16470
X30133Y15930
X30133Y17020
X31253Y15390
X30133Y14840
X31253Y14300
X30133Y13760
X30133Y12670
X31253Y12130
X31253Y13210
X30133Y11580
X31253Y11040
X30133Y10500
X30133Y9410
X31253Y8870
X31253Y9950
X30133Y8320
X31253Y7780
X17393Y5200
X16393Y5200
X15393Y5200
X14393Y5200
X13393Y5200
X12393Y5200
X10393Y5200
X9393Y5200
X8393Y5200
X7393Y5200
X6393Y5200
X5393Y5200
X3823Y5160
X3823Y6940
X1263Y6940
X1263Y5160
X3093Y9700
X4093Y9600
X5093Y9700
X6093Y9600
X7093Y9700
X8093Y9600
X7793Y24200
X6793Y24200
X5793Y24200
X4793Y24200
X3793Y24200
X2793Y24200
X1793Y24200
X8793Y24200
X10393Y24200
X11393Y24200
X12393Y24200
X13393Y24200
X14393Y24200
X15393Y24200
X16393Y24200
X17393Y24200
X31253Y20820
X31253Y19730
T06
X1143Y2900
X18943Y1950
X1143Y26500
X18943Y27450
T07
X30693Y23560
X30693Y5040
M30
