G75*
G70*
%OFA0B0*%
%FSLAX24Y24*%
%IPPOS*%
%LPD*%
%AMOC8*
5,1,8,0,0,1.08239X$1,22.5*
%
%ADD10C,0.0600*%
%ADD11C,0.0520*%
%ADD12C,0.0740*%
%ADD13OC8,0.0520*%
%ADD14OC8,0.0600*%
%ADD15C,0.2000*%
%ADD16C,0.0400*%
%ADD17R,0.0396X0.0396*%
%ADD18C,0.0240*%
%ADD19C,0.0500*%
%ADD20C,0.0560*%
%ADD21C,0.0100*%
%ADD22C,0.0320*%
D10*
X005393Y004900D02*
X005393Y005500D01*
X006393Y005500D02*
X006393Y004900D01*
X007393Y004900D02*
X007393Y005500D01*
X008393Y005500D02*
X008393Y004900D01*
X009393Y004900D02*
X009393Y005500D01*
X010393Y005500D02*
X010393Y004900D01*
X012393Y004900D02*
X012393Y005500D01*
X013393Y005500D02*
X013393Y004900D01*
X014393Y004900D02*
X014393Y005500D01*
X015393Y005500D02*
X015393Y004900D01*
X016393Y004900D02*
X016393Y005500D01*
X017393Y005500D02*
X017393Y004900D01*
X017393Y023900D02*
X017393Y024500D01*
X016393Y024500D02*
X016393Y023900D01*
X015393Y023900D02*
X015393Y024500D01*
X014393Y024500D02*
X014393Y023900D01*
X013393Y023900D02*
X013393Y024500D01*
X012393Y024500D02*
X012393Y023900D01*
X011393Y023900D02*
X011393Y024500D01*
X010393Y024500D02*
X010393Y023900D01*
X008793Y023900D02*
X008793Y024500D01*
X007793Y024500D02*
X007793Y023900D01*
X006793Y023900D02*
X006793Y024500D01*
X005793Y024500D02*
X005793Y023900D01*
X004793Y023900D02*
X004793Y024500D01*
X003793Y024500D02*
X003793Y023900D01*
X002793Y023900D02*
X002793Y024500D01*
X001793Y024500D02*
X001793Y023900D01*
D11*
X002093Y017410D02*
X002093Y016890D01*
X003093Y016890D02*
X003093Y017410D01*
X004093Y017410D02*
X004093Y016890D01*
X005093Y016890D02*
X005093Y017410D01*
X006093Y017410D02*
X006093Y016890D01*
X007093Y016890D02*
X007093Y017410D01*
X008093Y017410D02*
X008093Y016890D01*
X009093Y016890D02*
X009093Y017410D01*
X010093Y017410D02*
X010093Y016890D01*
X011093Y016890D02*
X011093Y017410D01*
X012093Y017410D02*
X012093Y016890D01*
X013093Y016890D02*
X013093Y017410D01*
X014093Y017410D02*
X014093Y016890D01*
X015093Y016890D02*
X015093Y017410D01*
X015093Y014410D02*
X015093Y013890D01*
X014093Y013890D02*
X014093Y014410D01*
X013093Y014410D02*
X013093Y013890D01*
X012093Y013890D02*
X012093Y014410D01*
X011093Y014410D02*
X011093Y013890D01*
X010093Y013890D02*
X010093Y014410D01*
X009093Y014410D02*
X009093Y013890D01*
X008093Y013890D02*
X008093Y014410D01*
X007093Y014410D02*
X007093Y013890D01*
X006093Y013890D02*
X006093Y014410D01*
X005093Y014410D02*
X005093Y013890D01*
X004093Y013890D02*
X004093Y014410D01*
X003093Y014410D02*
X003093Y013890D01*
X002093Y013890D02*
X002093Y014410D01*
X024993Y015390D02*
X024993Y015910D01*
X024993Y016790D02*
X024993Y017310D01*
X026843Y017490D02*
X026843Y018010D01*
X026843Y018990D02*
X026843Y019510D01*
X024993Y019790D02*
X024993Y020310D01*
X024993Y021290D02*
X024993Y021810D01*
X026843Y021990D02*
X026843Y022510D01*
X024993Y024290D02*
X024993Y024810D01*
X026843Y015010D02*
X026843Y014490D01*
X026843Y013610D02*
X026843Y013090D01*
X024993Y012910D02*
X024993Y012390D01*
X024993Y011410D02*
X024993Y010890D01*
X026843Y010610D02*
X026843Y010090D01*
X026793Y009060D02*
X026793Y008540D01*
X024993Y008410D02*
X024993Y007890D01*
X026793Y006060D02*
X026793Y005540D01*
D12*
X027693Y005800D03*
X025893Y008100D03*
X027693Y008800D03*
X027793Y010300D03*
X025893Y011100D03*
X025893Y012700D03*
X027793Y013300D03*
X027793Y014800D03*
X025893Y015700D03*
X025893Y017000D03*
X027793Y017800D03*
X027693Y019200D03*
X025893Y020000D03*
X025893Y021500D03*
X027693Y022200D03*
X025893Y024500D03*
X019993Y022300D03*
X019993Y021300D03*
X019993Y020300D03*
X019993Y019300D03*
X019993Y018300D03*
X019993Y017300D03*
X019993Y016300D03*
X019993Y015300D03*
X019993Y014000D03*
X019993Y013000D03*
X019993Y012000D03*
X019993Y011000D03*
X019993Y010000D03*
X019993Y009000D03*
X019993Y008000D03*
X019993Y007000D03*
X016993Y007000D03*
X016993Y008000D03*
X016993Y009000D03*
X016993Y010000D03*
X016993Y011000D03*
X016993Y012000D03*
X016993Y013000D03*
X016993Y014000D03*
X016993Y015300D03*
X016993Y016300D03*
X016993Y017300D03*
X016993Y018300D03*
X016993Y019300D03*
X016993Y020300D03*
X016993Y021300D03*
X016993Y022300D03*
X014393Y021000D03*
X014393Y020000D03*
X013693Y018800D03*
X011593Y020000D03*
X011593Y021000D03*
X009693Y021800D03*
X009693Y018800D03*
X010693Y018800D03*
X010193Y012250D03*
X011193Y012250D03*
X012193Y012250D03*
X008093Y009600D03*
X007093Y009700D03*
X006093Y009600D03*
X005093Y009700D03*
X004093Y009600D03*
X003093Y009700D03*
X003823Y006940D03*
X003823Y005160D03*
X001263Y005160D03*
X001263Y006940D03*
D13*
X002893Y008200D03*
X003893Y008200D03*
D14*
X030133Y008320D03*
X031253Y007780D03*
X031253Y008870D03*
X031253Y009950D03*
X030133Y009410D03*
X030133Y010500D03*
X031253Y011040D03*
X030133Y011580D03*
X031253Y012130D03*
X031253Y013210D03*
X030133Y012670D03*
X030133Y013760D03*
X031253Y014300D03*
X030133Y014840D03*
X031253Y015390D03*
X030133Y015930D03*
X030133Y017020D03*
X031253Y017560D03*
X031253Y016470D03*
X030133Y018100D03*
X031253Y018650D03*
X030133Y019190D03*
X030133Y020280D03*
X031253Y020820D03*
X031253Y019730D03*
D15*
X030693Y023560D03*
X030693Y005040D03*
D16*
X022393Y007400D02*
X022393Y009700D01*
X022393Y011900D01*
X022393Y014200D01*
X022393Y016300D01*
X022393Y018600D01*
X022393Y020800D01*
X022393Y023000D01*
X023043Y024000D02*
X023093Y023998D01*
X023143Y023993D01*
X023192Y023984D01*
X023240Y023972D01*
X023288Y023956D01*
X023334Y023937D01*
X023378Y023914D01*
X023421Y023889D01*
X023462Y023860D01*
X023501Y023829D01*
X023538Y023795D01*
X023572Y023758D01*
X023603Y023719D01*
X023632Y023678D01*
X023657Y023635D01*
X023680Y023591D01*
X023699Y023545D01*
X023715Y023497D01*
X023727Y023449D01*
X023736Y023400D01*
X023741Y023350D01*
X023743Y023300D01*
X023743Y021750D01*
X023744Y021750D02*
X023746Y021689D01*
X023751Y021628D01*
X023760Y021568D01*
X023773Y021508D01*
X023790Y021449D01*
X023809Y021391D01*
X023833Y021334D01*
X023859Y021279D01*
X023889Y021226D01*
X023922Y021175D01*
X023958Y021125D01*
X023997Y021078D01*
X024039Y021033D01*
X024083Y020991D01*
X024130Y020952D01*
X024179Y020915D01*
X024230Y020882D01*
X024283Y020851D01*
X024338Y020824D01*
X024394Y020800D01*
X024393Y020800D02*
X024405Y020796D01*
X024418Y020795D01*
X024431Y020796D01*
X024443Y020800D01*
X020893Y023101D02*
X020886Y023153D01*
X020882Y023207D01*
X020881Y023260D01*
X020885Y023313D01*
X020892Y023366D01*
X020903Y023419D01*
X020917Y023470D01*
X020935Y023520D01*
X020957Y023569D01*
X020982Y023616D01*
X021010Y023662D01*
X021041Y023705D01*
X021075Y023746D01*
X021112Y023785D01*
X021152Y023820D01*
X021194Y023853D01*
X021238Y023883D01*
X021284Y023910D01*
X021332Y023934D01*
X021381Y023954D01*
X021432Y023970D01*
X021484Y023983D01*
X021537Y023993D01*
X021590Y023998D01*
X021643Y024000D01*
X023043Y024000D01*
X020893Y023100D02*
X020893Y022050D01*
X020893Y019800D01*
X020893Y017550D01*
X020893Y015300D01*
X020893Y014650D01*
X018443Y014650D01*
X018443Y015250D01*
X016993Y015250D01*
X016143Y015450D02*
X016145Y015506D01*
X016150Y015561D01*
X016159Y015616D01*
X016172Y015670D01*
X016188Y015723D01*
X016208Y015775D01*
X016231Y015826D01*
X016257Y015875D01*
X016286Y015922D01*
X016319Y015967D01*
X016354Y016010D01*
X016392Y016051D01*
X016433Y016089D01*
X016476Y016124D01*
X016521Y016157D01*
X016568Y016186D01*
X016617Y016212D01*
X016668Y016235D01*
X016720Y016255D01*
X016773Y016271D01*
X016827Y016284D01*
X016882Y016293D01*
X016937Y016298D01*
X016993Y016300D01*
X016143Y015450D02*
X016143Y014250D01*
X016141Y014190D01*
X016136Y014131D01*
X016126Y014072D01*
X016113Y014014D01*
X016097Y013956D01*
X016076Y013900D01*
X016053Y013846D01*
X016025Y013792D01*
X015995Y013741D01*
X015962Y013692D01*
X015925Y013644D01*
X015886Y013600D01*
X015843Y013557D01*
X015799Y013518D01*
X015751Y013481D01*
X015702Y013448D01*
X015651Y013418D01*
X015597Y013390D01*
X015543Y013367D01*
X015487Y013346D01*
X015429Y013330D01*
X015371Y013317D01*
X015312Y013307D01*
X015253Y013302D01*
X015193Y013300D01*
X013704Y013300D01*
X013656Y013302D01*
X013609Y013308D01*
X013562Y013317D01*
X013515Y013330D01*
X013471Y013346D01*
X013427Y013366D01*
X013385Y013390D01*
X013345Y013416D01*
X013308Y013446D01*
X013273Y013479D01*
X013240Y013514D01*
X013210Y013551D01*
X013184Y013591D01*
X013160Y013633D01*
X013140Y013677D01*
X013124Y013721D01*
X013111Y013768D01*
X013102Y013815D01*
X013096Y013862D01*
X013094Y013910D01*
X013093Y013910D02*
X013093Y014150D01*
X014093Y014150D02*
X014093Y014369D01*
X014363Y015019D02*
X015582Y016239D01*
X015993Y017231D02*
X015993Y017730D01*
X015995Y017775D01*
X016000Y017819D01*
X016009Y017863D01*
X016021Y017906D01*
X016036Y017948D01*
X016055Y017989D01*
X016077Y018028D01*
X016102Y018065D01*
X016130Y018100D01*
X016160Y018133D01*
X016193Y018163D01*
X016228Y018191D01*
X016265Y018216D01*
X016304Y018238D01*
X016345Y018257D01*
X016387Y018272D01*
X016430Y018284D01*
X016474Y018293D01*
X016518Y018298D01*
X016563Y018300D01*
X016993Y018300D01*
X016993Y019300D02*
X018443Y019300D01*
X018443Y020494D01*
X018441Y020549D01*
X018435Y020604D01*
X018426Y020658D01*
X018413Y020711D01*
X018396Y020764D01*
X018376Y020815D01*
X018353Y020865D01*
X018326Y020913D01*
X018295Y020959D01*
X018262Y021003D01*
X018226Y021044D01*
X018187Y021083D01*
X018146Y021119D01*
X018102Y021152D01*
X018056Y021183D01*
X018008Y021210D01*
X017958Y021233D01*
X017907Y021253D01*
X017854Y021270D01*
X017801Y021283D01*
X017747Y021292D01*
X017692Y021298D01*
X017637Y021300D01*
X016993Y021300D01*
X018443Y019300D02*
X018443Y017300D01*
X018443Y015250D01*
X018443Y014650D02*
X018443Y012950D01*
X018443Y010950D01*
X018443Y008950D01*
X018443Y007849D01*
X018444Y007849D02*
X018442Y007793D01*
X018437Y007738D01*
X018428Y007683D01*
X018415Y007629D01*
X018399Y007576D01*
X018379Y007524D01*
X018356Y007473D01*
X018330Y007425D01*
X018301Y007377D01*
X018269Y007332D01*
X018233Y007289D01*
X018195Y007249D01*
X018155Y007211D01*
X018112Y007175D01*
X018067Y007143D01*
X018020Y007114D01*
X017971Y007088D01*
X017920Y007065D01*
X017868Y007045D01*
X017815Y007029D01*
X017761Y007016D01*
X017706Y007007D01*
X017651Y007002D01*
X017595Y007000D01*
X016993Y007000D01*
X016993Y009000D02*
X018393Y009000D01*
X018393Y011000D02*
X016993Y011000D01*
X016993Y013000D02*
X018393Y013000D01*
X020893Y013150D02*
X020893Y010900D01*
X020893Y008650D01*
X020893Y006400D01*
X020893Y013150D02*
X020893Y014650D01*
X014363Y015019D02*
X014325Y014978D01*
X014290Y014936D01*
X014257Y014891D01*
X014227Y014844D01*
X014199Y014796D01*
X014175Y014746D01*
X014154Y014695D01*
X014136Y014642D01*
X014121Y014589D01*
X014109Y014535D01*
X014101Y014480D01*
X014096Y014424D01*
X014094Y014369D01*
X011193Y012250D02*
X011193Y011253D01*
X010803Y010309D02*
X010435Y009942D01*
X009610Y009600D02*
X008093Y009600D01*
X006094Y010732D02*
X006096Y010811D01*
X006102Y010890D01*
X006111Y010969D01*
X006125Y011046D01*
X006142Y011124D01*
X006163Y011200D01*
X006188Y011275D01*
X006217Y011349D01*
X006249Y011421D01*
X006284Y011492D01*
X006323Y011561D01*
X006366Y011628D01*
X006411Y011692D01*
X006460Y011755D01*
X006512Y011815D01*
X006566Y011872D01*
X007598Y012905D01*
X007652Y012961D01*
X007703Y013020D01*
X007752Y013082D01*
X007797Y013145D01*
X007840Y013210D01*
X007879Y013278D01*
X007916Y013347D01*
X007949Y013417D01*
X007979Y013490D01*
X008005Y013563D01*
X008028Y013638D01*
X008048Y013713D01*
X008064Y013789D01*
X008077Y013867D01*
X008086Y013944D01*
X008091Y014022D01*
X008093Y014100D01*
X008476Y014983D02*
X009815Y016322D01*
X009816Y016322D02*
X009855Y016364D01*
X009892Y016408D01*
X009926Y016454D01*
X009957Y016502D01*
X009985Y016552D01*
X010010Y016604D01*
X010032Y016656D01*
X010051Y016711D01*
X010066Y016766D01*
X010078Y016822D01*
X010087Y016879D01*
X010092Y016936D01*
X010094Y016993D01*
X008476Y014983D02*
X008436Y014941D01*
X008399Y014896D01*
X008364Y014849D01*
X008332Y014800D01*
X008304Y014749D01*
X008278Y014696D01*
X008256Y014643D01*
X008237Y014587D01*
X008221Y014531D01*
X008209Y014474D01*
X008200Y014416D01*
X008195Y014358D01*
X008193Y014300D01*
X011193Y011253D02*
X011191Y011183D01*
X011186Y011114D01*
X011177Y011044D01*
X011164Y010976D01*
X011148Y010908D01*
X011128Y010841D01*
X011104Y010775D01*
X011078Y010710D01*
X011048Y010647D01*
X011014Y010586D01*
X010978Y010526D01*
X010938Y010469D01*
X010896Y010413D01*
X010850Y010360D01*
X010802Y010310D01*
X010434Y009942D02*
X010387Y009897D01*
X010337Y009854D01*
X010285Y009815D01*
X010230Y009779D01*
X010174Y009745D01*
X010116Y009715D01*
X010056Y009689D01*
X009995Y009665D01*
X009933Y009646D01*
X009869Y009629D01*
X009805Y009616D01*
X009741Y009607D01*
X009675Y009602D01*
X009610Y009600D01*
X006093Y009600D02*
X006093Y010732D01*
X015583Y016238D02*
X015633Y016292D01*
X015681Y016347D01*
X015726Y016406D01*
X015767Y016466D01*
X015806Y016529D01*
X015841Y016594D01*
X015873Y016660D01*
X015901Y016728D01*
X015925Y016797D01*
X015946Y016868D01*
X015963Y016939D01*
X015977Y017011D01*
X015986Y017084D01*
X015992Y017158D01*
X015994Y017231D01*
D17*
X020893Y017550D03*
X022393Y018600D03*
X020893Y019800D03*
X022393Y020800D03*
X020893Y022050D03*
X022393Y023000D03*
X027843Y020650D03*
X022393Y016300D03*
X020893Y015300D03*
X022393Y014200D03*
X020893Y013150D03*
X022393Y011900D03*
X020893Y010900D03*
X022393Y009700D03*
X020893Y008650D03*
X022393Y007400D03*
X020893Y006400D03*
D18*
X018443Y008950D02*
X018441Y008963D01*
X018436Y008975D01*
X018428Y008985D01*
X018418Y008993D01*
X018406Y008998D01*
X018393Y009000D01*
X018443Y010950D02*
X018441Y010963D01*
X018436Y010975D01*
X018428Y010985D01*
X018418Y010993D01*
X018406Y010998D01*
X018393Y011000D01*
X018443Y012950D02*
X018441Y012963D01*
X018436Y012975D01*
X018428Y012985D01*
X018418Y012993D01*
X018406Y012998D01*
X018393Y013000D01*
X016993Y015250D02*
X016993Y015300D01*
X016993Y017300D02*
X018443Y017300D01*
X024443Y020800D02*
X027693Y020800D01*
X027843Y020650D01*
X029070Y022200D02*
X029165Y022198D01*
X029260Y022191D01*
X029355Y022179D01*
X029448Y022163D01*
X029541Y022142D01*
X029633Y022117D01*
X029723Y022087D01*
X029812Y022052D01*
X029899Y022014D01*
X029984Y021971D01*
X030067Y021924D01*
X030147Y021873D01*
X030225Y021818D01*
X030300Y021760D01*
X030372Y021698D01*
X030441Y021632D01*
X031253Y020820D01*
X031993Y020080D01*
X031993Y019400D01*
X031253Y018660D01*
X031253Y018650D01*
X031253Y017560D01*
X031993Y016820D01*
X031993Y016150D01*
X031253Y015410D01*
X031253Y015390D01*
X031253Y014300D01*
X031993Y013560D01*
X031993Y012850D01*
X031273Y012130D01*
X031253Y012130D01*
X029749Y012130D01*
X028855Y011050D02*
X028832Y011052D01*
X028809Y011057D01*
X028787Y011066D01*
X028767Y011079D01*
X028749Y011094D01*
X028743Y011100D01*
X025893Y011100D01*
X025043Y011100D01*
X024993Y011150D01*
X026863Y008870D02*
X031253Y008870D01*
X031253Y007780D01*
X031263Y008870D02*
X031253Y008870D01*
X031263Y008870D02*
X031993Y009600D01*
X031993Y010300D01*
X031253Y011040D01*
X031253Y012130D01*
X031243Y011050D02*
X028855Y011050D01*
X028408Y012685D02*
X027793Y013300D01*
X027743Y013350D01*
X026843Y013350D01*
X029023Y015700D02*
X029063Y015698D01*
X029103Y015692D01*
X029143Y015682D01*
X029181Y015669D01*
X029217Y015651D01*
X029252Y015631D01*
X029284Y015606D01*
X029314Y015579D01*
X029023Y015700D02*
X025893Y015700D01*
X025043Y015700D02*
X024993Y015650D01*
X026843Y017750D02*
X027743Y017750D01*
X027793Y017800D01*
X029143Y017800D01*
X029400Y017693D02*
X029478Y017615D01*
X029636Y017550D02*
X031243Y017550D01*
X031253Y018650D02*
X030778Y019353D01*
X030030Y019750D02*
X029597Y019750D01*
X029420Y019823D02*
X029374Y019869D01*
X029420Y019823D02*
X029441Y019805D01*
X029464Y019788D01*
X029489Y019775D01*
X029514Y019764D01*
X029541Y019756D01*
X029569Y019752D01*
X029597Y019750D01*
X029374Y019869D02*
X029345Y019895D01*
X029314Y019919D01*
X029281Y019940D01*
X029247Y019958D01*
X029211Y019973D01*
X029174Y019985D01*
X029136Y019993D01*
X029097Y019998D01*
X029058Y020000D01*
X025893Y020000D01*
X025843Y020050D01*
X024993Y020050D01*
X026893Y022200D02*
X026843Y022250D01*
X026462Y022631D01*
X026893Y022200D02*
X027693Y022200D01*
X029070Y022200D01*
X026462Y022631D02*
X026396Y022700D01*
X026334Y022772D01*
X026275Y022847D01*
X026220Y022925D01*
X026169Y023006D01*
X026122Y023089D01*
X026079Y023174D01*
X026041Y023261D01*
X026007Y023350D01*
X025977Y023440D01*
X025951Y023532D01*
X025930Y023625D01*
X025914Y023719D01*
X025902Y023814D01*
X025895Y023909D01*
X025893Y024004D01*
X025893Y024500D01*
X025843Y024550D01*
X024993Y024550D01*
X020893Y023250D02*
X020893Y023100D01*
X029143Y017800D02*
X029179Y017798D01*
X029214Y017793D01*
X029249Y017784D01*
X029282Y017772D01*
X029315Y017757D01*
X029345Y017739D01*
X029374Y017717D01*
X029400Y017693D01*
X029478Y017616D02*
X029500Y017596D01*
X029524Y017580D01*
X029550Y017567D01*
X029578Y017558D01*
X029607Y017552D01*
X029636Y017550D01*
X030777Y019353D02*
X030743Y019401D01*
X030705Y019446D01*
X030665Y019489D01*
X030622Y019529D01*
X030576Y019566D01*
X030529Y019600D01*
X030479Y019630D01*
X030427Y019658D01*
X030373Y019682D01*
X030318Y019703D01*
X030262Y019720D01*
X030205Y019733D01*
X030147Y019742D01*
X030089Y019748D01*
X030030Y019750D01*
X029314Y015579D02*
X029350Y015547D01*
X029387Y015517D01*
X029427Y015490D01*
X029469Y015467D01*
X029513Y015447D01*
X029558Y015430D01*
X029604Y015417D01*
X029651Y015408D01*
X029699Y015402D01*
X029747Y015400D01*
X031243Y015400D01*
X029749Y012130D02*
X029656Y012132D01*
X029563Y012139D01*
X029471Y012151D01*
X029379Y012166D01*
X029288Y012187D01*
X029199Y012212D01*
X029110Y012241D01*
X029023Y012274D01*
X028938Y012312D01*
X028855Y012354D01*
X028774Y012400D01*
X028696Y012450D01*
X028620Y012503D01*
X028546Y012560D01*
X028476Y012621D01*
X028408Y012685D01*
X026863Y008870D02*
X026793Y008800D01*
X027693Y008800D01*
X010093Y016993D02*
X010093Y017150D01*
X008193Y014300D02*
X008043Y014150D01*
X007993Y014100D01*
X008093Y014100D02*
X008093Y014150D01*
D19*
X008093Y017150D02*
X008093Y018176D01*
X007865Y018729D02*
X007843Y018750D01*
X008726Y019633D01*
X009612Y020000D02*
X011593Y020000D01*
X009612Y020000D02*
X009546Y019998D01*
X009481Y019993D01*
X009416Y019985D01*
X009351Y019973D01*
X009288Y019957D01*
X009225Y019939D01*
X009163Y019917D01*
X009102Y019892D01*
X009043Y019863D01*
X008985Y019832D01*
X008930Y019798D01*
X008876Y019761D01*
X008823Y019721D01*
X008774Y019678D01*
X008726Y019633D01*
X007843Y018750D02*
X006913Y019681D01*
X006858Y019732D01*
X006801Y019781D01*
X006742Y019827D01*
X006680Y019869D01*
X006616Y019908D01*
X006550Y019944D01*
X006482Y019976D01*
X006413Y020005D01*
X006343Y020030D01*
X006271Y020051D01*
X006198Y020069D01*
X006124Y020082D01*
X006050Y020092D01*
X005975Y020098D01*
X005900Y020100D01*
X004523Y020671D02*
X003669Y021525D01*
X002793Y023497D02*
X002793Y024200D01*
X001911Y025400D02*
X001846Y025398D01*
X001781Y025392D01*
X001717Y025383D01*
X001653Y025370D01*
X001590Y025353D01*
X001529Y025333D01*
X001468Y025309D01*
X001409Y025281D01*
X001352Y025250D01*
X001297Y025216D01*
X001243Y025179D01*
X001192Y025138D01*
X001144Y025095D01*
X001098Y025049D01*
X001055Y025001D01*
X001014Y024950D01*
X000977Y024896D01*
X000943Y024841D01*
X000912Y024784D01*
X000884Y024725D01*
X000860Y024664D01*
X000840Y024603D01*
X000823Y024540D01*
X000810Y024476D01*
X000801Y024412D01*
X000795Y024347D01*
X000793Y024282D01*
X000793Y013721D01*
X000795Y013630D01*
X000802Y013538D01*
X000813Y013448D01*
X000828Y013357D01*
X000847Y013268D01*
X000871Y013180D01*
X000899Y013093D01*
X000931Y013007D01*
X000967Y012923D01*
X001007Y012841D01*
X001050Y012761D01*
X001098Y012682D01*
X001149Y012607D01*
X001204Y012534D01*
X001262Y012463D01*
X001324Y012395D01*
X001388Y012331D01*
X001456Y012269D01*
X001527Y012211D01*
X001600Y012156D01*
X001675Y012105D01*
X001753Y012057D01*
X001834Y012014D01*
X001916Y011974D01*
X002000Y011938D01*
X002086Y011906D01*
X002173Y011878D01*
X002261Y011854D01*
X002350Y011835D01*
X002441Y011820D01*
X002531Y011809D01*
X002623Y011802D01*
X002714Y011800D01*
X003679Y011800D01*
X003753Y011798D01*
X003827Y011792D01*
X003900Y011783D01*
X003973Y011769D01*
X004045Y011752D01*
X004116Y011731D01*
X004186Y011706D01*
X004254Y011678D01*
X004321Y011646D01*
X004386Y011611D01*
X004449Y011572D01*
X004510Y011530D01*
X004569Y011485D01*
X004625Y011437D01*
X004679Y011386D01*
X004730Y011332D01*
X004778Y011276D01*
X004823Y011217D01*
X004865Y011156D01*
X004904Y011093D01*
X004939Y011028D01*
X004971Y010961D01*
X004999Y010893D01*
X005024Y010823D01*
X005045Y010752D01*
X005062Y010680D01*
X005076Y010607D01*
X005085Y010534D01*
X005091Y010460D01*
X005093Y010386D01*
X005093Y009700D01*
X008393Y005200D02*
X008395Y005124D01*
X008401Y005048D01*
X008410Y004973D01*
X008424Y004898D01*
X008441Y004824D01*
X008462Y004751D01*
X008486Y004679D01*
X008515Y004608D01*
X008546Y004539D01*
X008581Y004472D01*
X008620Y004407D01*
X008662Y004343D01*
X008707Y004282D01*
X008755Y004223D01*
X008806Y004167D01*
X008860Y004113D01*
X008916Y004062D01*
X008975Y004014D01*
X009036Y003969D01*
X009100Y003927D01*
X009165Y003888D01*
X009232Y003853D01*
X009301Y003822D01*
X009372Y003793D01*
X009444Y003769D01*
X009517Y003748D01*
X009591Y003731D01*
X009666Y003717D01*
X009741Y003708D01*
X009817Y003702D01*
X009893Y003700D01*
X019294Y003700D01*
X022024Y004830D02*
X022069Y004878D01*
X022112Y004928D01*
X022152Y004981D01*
X022190Y005035D01*
X022224Y005092D01*
X022256Y005150D01*
X022284Y005209D01*
X022309Y005270D01*
X022331Y005332D01*
X022350Y005396D01*
X022365Y005460D01*
X022377Y005525D01*
X022386Y005590D01*
X022391Y005656D01*
X022393Y005722D01*
X022393Y007400D01*
X022023Y004831D02*
X021894Y004707D01*
X021760Y004590D01*
X021620Y004480D01*
X021475Y004376D01*
X021326Y004278D01*
X021172Y004188D01*
X021015Y004105D01*
X020853Y004029D01*
X020688Y003961D01*
X020521Y003900D01*
X020350Y003847D01*
X020178Y003803D01*
X020003Y003766D01*
X019827Y003737D01*
X019650Y003716D01*
X019472Y003704D01*
X019294Y003700D01*
X025043Y015700D02*
X025893Y015700D01*
X017393Y024200D02*
X017393Y024619D01*
X017391Y024675D01*
X017385Y024730D01*
X017375Y024785D01*
X017361Y024839D01*
X017344Y024892D01*
X017322Y024943D01*
X017297Y024993D01*
X017269Y025041D01*
X017237Y025087D01*
X017202Y025130D01*
X017164Y025171D01*
X017123Y025209D01*
X017080Y025244D01*
X017034Y025276D01*
X016986Y025304D01*
X016936Y025329D01*
X016885Y025351D01*
X016832Y025368D01*
X016778Y025382D01*
X016723Y025392D01*
X016668Y025398D01*
X016612Y025400D01*
X001911Y025400D01*
X002794Y023496D02*
X002800Y023366D01*
X002812Y023237D01*
X002831Y023108D01*
X002855Y022980D01*
X002885Y022853D01*
X002921Y022728D01*
X002962Y022604D01*
X003010Y022483D01*
X003063Y022364D01*
X003121Y022248D01*
X003184Y022134D01*
X003253Y022023D01*
X003327Y021916D01*
X003406Y021812D01*
X003489Y021712D01*
X003577Y021616D01*
X003669Y021524D01*
X004523Y020671D02*
X004588Y020608D01*
X004656Y020549D01*
X004726Y020493D01*
X004799Y020441D01*
X004875Y020392D01*
X004952Y020346D01*
X005032Y020304D01*
X005113Y020266D01*
X005196Y020232D01*
X005281Y020201D01*
X005367Y020174D01*
X005454Y020152D01*
X005542Y020133D01*
X005631Y020119D01*
X005720Y020108D01*
X005810Y020102D01*
X005900Y020100D01*
X007864Y018728D02*
X007899Y018691D01*
X007932Y018651D01*
X007961Y018610D01*
X007988Y018567D01*
X008012Y018521D01*
X008034Y018475D01*
X008052Y018427D01*
X008066Y018378D01*
X008078Y018328D01*
X008086Y018278D01*
X008091Y018227D01*
X008093Y018176D01*
D20*
X022393Y016300D02*
X022393Y015650D01*
X024993Y015650D01*
D21*
X008093Y014100D02*
X008043Y014150D01*
D22*
X010093Y014150D02*
X010093Y012350D01*
X010193Y012250D01*
X011979Y012713D02*
X012009Y012681D01*
X012036Y012647D01*
X012061Y012610D01*
X012082Y012572D01*
X012100Y012532D01*
X012116Y012491D01*
X012128Y012448D01*
X012136Y012405D01*
X012141Y012362D01*
X012143Y012318D01*
X012143Y012300D01*
X012193Y012250D01*
X011980Y012714D02*
X011315Y013378D01*
X011093Y013913D02*
X011093Y014150D01*
X011093Y013913D02*
X011095Y013859D01*
X011101Y013805D01*
X011110Y013752D01*
X011124Y013700D01*
X011141Y013648D01*
X011161Y013599D01*
X011186Y013550D01*
X011213Y013504D01*
X011244Y013459D01*
X011278Y013417D01*
X011315Y013378D01*
M02*
