G75*
G70*
%OFA0B0*%
%FSLAX24Y24*%
%IPPOS*%
%LPD*%
%AMOC8*
5,1,8,0,0,1.08239X$1,22.5*
%
%ADD10R,0.0866X0.0236*%
D10*
X021620Y005900D03*
X021620Y006400D03*
X021620Y006900D03*
X021620Y007400D03*
X021620Y008150D03*
X021620Y008650D03*
X021620Y009150D03*
X021620Y009650D03*
X021620Y010400D03*
X021620Y010900D03*
X021620Y011400D03*
X021620Y011900D03*
X021620Y012650D03*
X021620Y013150D03*
X021620Y013650D03*
X021620Y014150D03*
X021620Y014800D03*
X021620Y015300D03*
X021620Y015800D03*
X021620Y016300D03*
X021620Y017050D03*
X021620Y017550D03*
X021620Y018050D03*
X021620Y018550D03*
X021620Y019300D03*
X021620Y019800D03*
X021620Y020300D03*
X021620Y020800D03*
X021620Y021550D03*
X021620Y022050D03*
X021620Y022550D03*
X021620Y023050D03*
X023667Y023050D03*
X023667Y022550D03*
X023667Y022050D03*
X023667Y021550D03*
X023667Y020800D03*
X023667Y020300D03*
X023667Y019800D03*
X023667Y019300D03*
X023667Y018550D03*
X023667Y018050D03*
X023667Y017550D03*
X023667Y017050D03*
X023667Y016300D03*
X023667Y015800D03*
X023667Y015300D03*
X023667Y014800D03*
X023667Y014150D03*
X023667Y013650D03*
X023667Y013150D03*
X023667Y012650D03*
X023667Y011900D03*
X023667Y011400D03*
X023667Y010900D03*
X023667Y010400D03*
X023667Y009650D03*
X023667Y009150D03*
X023667Y008650D03*
X023667Y008150D03*
X023667Y007400D03*
X023667Y006900D03*
X023667Y006400D03*
X023667Y005900D03*
M02*
