G75*
G70*
%OFA0B0*%
%FSLAX24Y24*%
%IPPOS*%
%LPD*%
%AMOC8*
5,1,8,0,0,1.08239X$1,22.5*
%
%ADD10C,0.0080*%
%ADD11C,0.0100*%
%ADD12C,0.0070*%
%ADD13C,0.0040*%
%ADD14C,0.0060*%
%ADD15C,0.0030*%
%ADD16C,0.0090*%
%ADD17C,0.0200*%
%ADD18C,0.0120*%
D10*
X004893Y004950D02*
X005143Y004700D01*
X005643Y004700D01*
X005893Y004950D01*
X006143Y004700D01*
X006643Y004700D01*
X006893Y004950D01*
X006893Y005450D01*
X006643Y005700D01*
X006143Y005700D01*
X005893Y005450D01*
X005893Y004950D01*
X005893Y005450D02*
X005643Y005700D01*
X005143Y005700D01*
X004893Y005450D01*
X004893Y004950D01*
X005120Y005985D02*
X005120Y006221D01*
X005199Y006299D01*
X005356Y006299D01*
X005434Y006221D01*
X005434Y005985D01*
X005434Y006142D02*
X005592Y006299D01*
X005513Y006492D02*
X005592Y006571D01*
X005592Y006728D01*
X005513Y006807D01*
X005434Y006807D01*
X005356Y006728D01*
X005356Y006571D01*
X005277Y006492D01*
X005199Y006492D01*
X005120Y006571D01*
X005120Y006728D01*
X005199Y006807D01*
X005120Y007000D02*
X005120Y007314D01*
X005120Y007157D02*
X005592Y007157D01*
X006070Y007078D02*
X006149Y007000D01*
X006070Y007078D02*
X006070Y007236D01*
X006149Y007314D01*
X006227Y007314D01*
X006306Y007236D01*
X006384Y007314D01*
X006463Y007314D01*
X006542Y007236D01*
X006542Y007078D01*
X006463Y007000D01*
X006384Y006807D02*
X006070Y006807D01*
X006384Y006807D02*
X006542Y006650D01*
X006384Y006492D01*
X006070Y006492D01*
X006149Y006299D02*
X006227Y006299D01*
X006306Y006221D01*
X006384Y006299D01*
X006463Y006299D01*
X006542Y006221D01*
X006542Y006063D01*
X006463Y005985D01*
X006306Y006142D02*
X006306Y006221D01*
X006149Y006299D02*
X006070Y006221D01*
X006070Y006063D01*
X006149Y005985D01*
X005592Y005985D02*
X005120Y005985D01*
X006306Y007157D02*
X006306Y007236D01*
X007186Y006725D02*
X007467Y006725D01*
X007607Y006585D01*
X007467Y006445D01*
X007186Y006445D01*
X007186Y006265D02*
X007186Y005985D01*
X007396Y005985D01*
X007326Y006125D01*
X007326Y006195D01*
X007396Y006265D01*
X007537Y006265D01*
X007607Y006195D01*
X007607Y006055D01*
X007537Y005985D01*
X007643Y005700D02*
X007143Y005700D01*
X006893Y005450D01*
X006893Y004950D02*
X007143Y004700D01*
X007643Y004700D01*
X007893Y004950D01*
X008143Y004700D01*
X008643Y004700D01*
X008893Y004950D01*
X009143Y004700D01*
X009643Y004700D01*
X009893Y004950D01*
X010143Y004700D01*
X010643Y004700D01*
X010893Y004950D01*
X010893Y005450D01*
X010643Y005700D01*
X010143Y005700D01*
X009893Y005450D01*
X009893Y004950D01*
X009893Y005450D02*
X009643Y005700D01*
X009143Y005700D01*
X008893Y005450D01*
X008893Y004950D01*
X008893Y005450D02*
X008643Y005700D01*
X008143Y005700D01*
X007893Y005450D01*
X007893Y004950D01*
X007893Y005450D02*
X007643Y005700D01*
X008586Y006055D02*
X008586Y006195D01*
X008656Y006265D01*
X008796Y006265D02*
X008796Y006125D01*
X008796Y006265D02*
X008937Y006265D01*
X009007Y006195D01*
X009007Y006055D01*
X008937Y005985D01*
X008656Y005985D01*
X008586Y006055D01*
X008586Y006445D02*
X009007Y006725D01*
X008586Y006725D01*
X008586Y006906D02*
X008586Y007116D01*
X008656Y007186D01*
X008937Y007186D01*
X009007Y007116D01*
X009007Y006906D01*
X008586Y006906D01*
X008586Y006445D02*
X009007Y006445D01*
X010016Y006515D02*
X010086Y006515D01*
X010226Y006515D02*
X010507Y006515D01*
X010507Y006445D02*
X010507Y006585D01*
X010507Y006752D02*
X010226Y006752D01*
X010226Y006962D01*
X010296Y007032D01*
X010507Y007032D01*
X010226Y006515D02*
X010226Y006445D01*
X010367Y006265D02*
X010086Y006265D01*
X010086Y005985D02*
X010367Y005985D01*
X010507Y006125D01*
X010367Y006265D01*
X011893Y005450D02*
X012143Y005700D01*
X012643Y005700D01*
X012893Y005450D01*
X013143Y005700D01*
X013643Y005700D01*
X013893Y005450D01*
X013893Y004950D01*
X013643Y004700D01*
X013143Y004700D01*
X012893Y004950D01*
X012643Y004700D01*
X012143Y004700D01*
X011893Y004950D01*
X011893Y005450D01*
X012260Y006040D02*
X012182Y006119D01*
X012182Y006276D01*
X012260Y006354D01*
X012575Y006040D01*
X012653Y006119D01*
X012653Y006276D01*
X012575Y006354D01*
X012260Y006354D01*
X012260Y006040D02*
X012575Y006040D01*
X013182Y006197D02*
X013339Y006040D01*
X013182Y006197D02*
X013653Y006197D01*
X013653Y006040D02*
X013653Y006354D01*
X014182Y006276D02*
X014182Y006119D01*
X014260Y006040D01*
X014182Y006276D02*
X014260Y006354D01*
X014339Y006354D01*
X014653Y006040D01*
X014653Y006354D01*
X015182Y006276D02*
X015182Y006119D01*
X015260Y006040D01*
X015418Y006197D02*
X015418Y006276D01*
X015496Y006354D01*
X015575Y006354D01*
X015653Y006276D01*
X015653Y006119D01*
X015575Y006040D01*
X015418Y006276D02*
X015339Y006354D01*
X015260Y006354D01*
X015182Y006276D01*
X015143Y005700D02*
X014893Y005450D01*
X014893Y004950D01*
X015143Y004700D01*
X015643Y004700D01*
X015893Y004950D01*
X016143Y004700D01*
X016643Y004700D01*
X016893Y004950D01*
X017143Y004700D01*
X017643Y004700D01*
X017893Y004950D01*
X017893Y005450D01*
X017643Y005700D01*
X017143Y005700D01*
X016893Y005450D01*
X016893Y004950D01*
X016893Y005450D02*
X016643Y005700D01*
X016143Y005700D01*
X015893Y005450D01*
X015893Y004950D01*
X015893Y005450D02*
X015643Y005700D01*
X015143Y005700D01*
X014893Y005450D02*
X014643Y005700D01*
X014143Y005700D01*
X013893Y005450D01*
X013893Y004950D02*
X014143Y004700D01*
X014643Y004700D01*
X014893Y004950D01*
X016082Y006276D02*
X016318Y006040D01*
X016318Y006354D01*
X016553Y006276D02*
X016082Y006276D01*
X017182Y006354D02*
X017182Y006040D01*
X017418Y006040D01*
X017339Y006197D01*
X017339Y006276D01*
X017418Y006354D01*
X017575Y006354D01*
X017653Y006276D01*
X017653Y006119D01*
X017575Y006040D01*
X017493Y006700D02*
X017493Y007300D01*
X019493Y007300D01*
X019493Y006700D01*
X017493Y006700D01*
X017493Y007700D02*
X017493Y008300D01*
X019493Y008300D01*
X019493Y007700D01*
X017493Y007700D01*
X017493Y008700D02*
X017493Y009300D01*
X019493Y009300D01*
X019493Y008700D01*
X017493Y008700D01*
X017493Y009700D02*
X017493Y010300D01*
X019493Y010300D01*
X019493Y009700D01*
X017493Y009700D01*
X017493Y010700D02*
X017493Y011300D01*
X019493Y011300D01*
X019493Y010700D01*
X017493Y010700D01*
X017493Y011700D02*
X017493Y012300D01*
X019493Y012300D01*
X019493Y011700D01*
X017493Y011700D01*
X017493Y012700D02*
X017493Y013300D01*
X019493Y013300D01*
X019493Y012700D01*
X017493Y012700D01*
X017493Y013700D02*
X017493Y014300D01*
X019493Y014300D01*
X019493Y013700D01*
X017493Y013700D01*
X015893Y014550D02*
X015893Y016750D01*
X001293Y016750D01*
X001293Y015900D01*
X001323Y015898D01*
X001353Y015893D01*
X001382Y015884D01*
X001409Y015871D01*
X001435Y015856D01*
X001459Y015837D01*
X001480Y015816D01*
X001499Y015792D01*
X001514Y015766D01*
X001527Y015739D01*
X001536Y015710D01*
X001541Y015680D01*
X001543Y015650D01*
X001541Y015620D01*
X001536Y015590D01*
X001527Y015561D01*
X001514Y015534D01*
X001499Y015508D01*
X001480Y015484D01*
X001459Y015463D01*
X001435Y015444D01*
X001409Y015429D01*
X001382Y015416D01*
X001353Y015407D01*
X001323Y015402D01*
X001293Y015400D01*
X001293Y014550D01*
X015893Y014550D01*
X017493Y015000D02*
X017493Y015600D01*
X019493Y015600D01*
X019493Y015000D01*
X017493Y015000D01*
X017493Y016000D02*
X017493Y016600D01*
X019493Y016600D01*
X019493Y016000D01*
X017493Y016000D01*
X017493Y017000D02*
X017493Y017600D01*
X019493Y017600D01*
X019493Y017000D01*
X017493Y017000D01*
X017493Y018000D02*
X017493Y018600D01*
X019493Y018600D01*
X019493Y018000D01*
X017493Y018000D01*
X017493Y019000D02*
X017493Y019600D01*
X019493Y019600D01*
X019493Y019000D01*
X017493Y019000D01*
X017493Y020000D02*
X017493Y020600D01*
X019493Y020600D01*
X019493Y020000D01*
X017493Y020000D01*
X017493Y021000D02*
X017493Y021600D01*
X019493Y021600D01*
X019493Y021000D01*
X017493Y021000D01*
X017493Y022000D02*
X017493Y022600D01*
X019493Y022600D01*
X019493Y022000D01*
X017493Y022000D01*
X017574Y022935D02*
X017259Y023249D01*
X017574Y023249D01*
X017652Y023171D01*
X017652Y023013D01*
X017574Y022935D01*
X017259Y022935D01*
X017181Y023013D01*
X017181Y023171D01*
X017259Y023249D01*
X017143Y023700D02*
X017643Y023700D01*
X017893Y023950D01*
X017893Y024450D01*
X017643Y024700D01*
X017143Y024700D01*
X016893Y024450D01*
X016893Y023950D01*
X017143Y023700D01*
X016893Y023950D02*
X016643Y023700D01*
X016143Y023700D01*
X015893Y023950D01*
X015643Y023700D01*
X015143Y023700D01*
X014893Y023950D01*
X014643Y023700D01*
X014143Y023700D01*
X013893Y023950D01*
X013643Y023700D01*
X013143Y023700D01*
X012893Y023950D01*
X012643Y023700D01*
X012143Y023700D01*
X011893Y023950D01*
X011643Y023700D01*
X011143Y023700D01*
X010893Y023950D01*
X010643Y023700D01*
X010143Y023700D01*
X009893Y023950D01*
X009893Y024450D01*
X010143Y024700D01*
X010643Y024700D01*
X010893Y024450D01*
X011143Y024700D01*
X011643Y024700D01*
X011893Y024450D01*
X011893Y023950D01*
X011893Y024450D02*
X012143Y024700D01*
X012643Y024700D01*
X012893Y024450D01*
X013143Y024700D01*
X013643Y024700D01*
X013893Y024450D01*
X014143Y024700D01*
X014643Y024700D01*
X014893Y024450D01*
X014893Y023950D01*
X014893Y024450D02*
X015143Y024700D01*
X015643Y024700D01*
X015893Y024450D01*
X016143Y024700D01*
X016643Y024700D01*
X016893Y024450D01*
X015893Y024450D02*
X015893Y023950D01*
X015627Y023249D02*
X015627Y022935D01*
X015313Y023249D01*
X015234Y023249D01*
X015156Y023171D01*
X015156Y023013D01*
X015234Y022935D01*
X014627Y023013D02*
X014549Y022935D01*
X014627Y023013D02*
X014627Y023171D01*
X014549Y023249D01*
X014470Y023249D01*
X014392Y023171D01*
X014392Y023092D01*
X014392Y023171D02*
X014313Y023249D01*
X014234Y023249D01*
X014156Y023171D01*
X014156Y023013D01*
X014234Y022935D01*
X013652Y023171D02*
X013181Y023171D01*
X013417Y022935D01*
X013417Y023249D01*
X012627Y023171D02*
X012627Y023013D01*
X012549Y022935D01*
X012392Y022935D02*
X012313Y023092D01*
X012313Y023171D01*
X012392Y023249D01*
X012549Y023249D01*
X012627Y023171D01*
X012392Y022935D02*
X012156Y022935D01*
X012156Y023249D01*
X011627Y023171D02*
X011549Y023249D01*
X011470Y023249D01*
X011392Y023171D01*
X011392Y022935D01*
X011549Y022935D01*
X011627Y023013D01*
X011627Y023171D01*
X011392Y022935D02*
X011234Y023092D01*
X011156Y023249D01*
X010652Y022935D02*
X010574Y022935D01*
X010259Y023249D01*
X010181Y023249D01*
X010181Y022935D01*
X009053Y023019D02*
X008975Y022940D01*
X008896Y022940D01*
X008818Y023019D01*
X008818Y023176D01*
X008896Y023254D01*
X008975Y023254D01*
X009053Y023176D01*
X009053Y023019D01*
X008818Y023019D02*
X008739Y022940D01*
X008660Y022940D01*
X008582Y023019D01*
X008582Y023176D01*
X008660Y023254D01*
X008739Y023254D01*
X008818Y023176D01*
X009043Y023700D02*
X008543Y023700D01*
X008293Y023950D01*
X008043Y023700D01*
X007543Y023700D01*
X007293Y023950D01*
X007043Y023700D01*
X006543Y023700D01*
X006293Y023950D01*
X006043Y023700D01*
X005543Y023700D01*
X005293Y023950D01*
X005043Y023700D01*
X004543Y023700D01*
X004293Y023950D01*
X004043Y023700D01*
X003543Y023700D01*
X003293Y023950D01*
X003043Y023700D01*
X002543Y023700D01*
X002293Y023950D01*
X002043Y023700D01*
X001543Y023700D01*
X001293Y023950D01*
X001293Y024450D01*
X001543Y024700D01*
X002043Y024700D01*
X002293Y024450D01*
X002543Y024700D01*
X003043Y024700D01*
X003293Y024450D01*
X003293Y023950D01*
X003293Y024450D02*
X003543Y024700D01*
X004043Y024700D01*
X004293Y024450D01*
X004543Y024700D01*
X005043Y024700D01*
X005293Y024450D01*
X005543Y024700D01*
X006043Y024700D01*
X006293Y024450D01*
X006293Y023950D01*
X006293Y024450D02*
X006543Y024700D01*
X007043Y024700D01*
X007293Y024450D01*
X007543Y024700D01*
X008043Y024700D01*
X008293Y024450D01*
X008543Y024700D01*
X009043Y024700D01*
X009293Y024450D01*
X009293Y023950D01*
X009043Y023700D01*
X008293Y023950D02*
X008293Y024450D01*
X007293Y024450D02*
X007293Y023950D01*
X006975Y023262D02*
X006660Y023262D01*
X006975Y022948D01*
X007053Y023026D01*
X007053Y023183D01*
X006975Y023262D01*
X006975Y022948D02*
X006660Y022948D01*
X006582Y023026D01*
X006582Y023183D01*
X006660Y023262D01*
X006053Y023262D02*
X006053Y022948D01*
X006053Y023105D02*
X005582Y023105D01*
X005739Y022948D01*
X006053Y022754D02*
X006053Y022440D01*
X006053Y022597D02*
X005582Y022597D01*
X005739Y022440D01*
X005053Y022440D02*
X005053Y022754D01*
X005053Y022597D02*
X004582Y022597D01*
X004739Y022440D01*
X004660Y022948D02*
X004582Y023026D01*
X004582Y023183D01*
X004660Y023262D01*
X004739Y023262D01*
X005053Y022948D01*
X005053Y023262D01*
X005293Y023950D02*
X005293Y024450D01*
X004293Y024450D02*
X004293Y023950D01*
X003975Y023262D02*
X004053Y023183D01*
X004053Y023026D01*
X003975Y022948D01*
X004053Y022754D02*
X004053Y022440D01*
X004053Y022597D02*
X003582Y022597D01*
X003739Y022440D01*
X003660Y022948D02*
X003582Y023026D01*
X003582Y023183D01*
X003660Y023262D01*
X003739Y023262D01*
X003818Y023183D01*
X003896Y023262D01*
X003975Y023262D01*
X003818Y023183D02*
X003818Y023105D01*
X003053Y023055D02*
X003053Y023291D01*
X002975Y023369D01*
X002660Y023369D01*
X002582Y023291D01*
X002582Y023055D01*
X003053Y023055D01*
X003053Y022862D02*
X002582Y022862D01*
X002582Y022548D02*
X003053Y022862D01*
X003053Y022548D02*
X002582Y022548D01*
X002660Y022354D02*
X002582Y022276D01*
X002582Y022119D01*
X002660Y022040D01*
X002975Y022040D01*
X003053Y022119D01*
X003053Y022276D01*
X002975Y022354D01*
X002818Y022354D01*
X002818Y022197D01*
X002053Y022148D02*
X001582Y022148D01*
X001582Y022383D01*
X001660Y022462D01*
X001818Y022462D01*
X001896Y022383D01*
X001896Y022148D01*
X001896Y022305D02*
X002053Y022462D01*
X002053Y022655D02*
X001582Y022655D01*
X001582Y022969D01*
X001582Y023163D02*
X001582Y023477D01*
X001818Y023320D02*
X001818Y023163D01*
X002053Y023163D02*
X001582Y023163D01*
X001818Y022812D02*
X001818Y022655D01*
X002053Y022655D02*
X002053Y022969D01*
X002293Y023950D02*
X002293Y024450D01*
X002053Y021954D02*
X001739Y021954D01*
X001582Y021797D01*
X001739Y021640D01*
X002053Y021640D01*
X001818Y021640D02*
X001818Y021954D01*
X006582Y022597D02*
X007053Y022597D01*
X007053Y022440D02*
X007053Y022754D01*
X006739Y022440D02*
X006582Y022597D01*
X007582Y023019D02*
X007660Y022940D01*
X007739Y022940D01*
X007818Y023019D01*
X007818Y023254D01*
X007975Y023254D02*
X007660Y023254D01*
X007582Y023176D01*
X007582Y023019D01*
X007975Y022940D02*
X008053Y023019D01*
X008053Y023176D01*
X007975Y023254D01*
X009393Y021300D02*
X009993Y021300D01*
X009993Y019300D01*
X009393Y019300D01*
X009393Y021300D01*
X010843Y019500D02*
X012343Y019500D01*
X013193Y019100D02*
X011193Y019100D01*
X011193Y018500D01*
X013193Y018500D01*
X013193Y019100D01*
X012093Y011550D02*
X011734Y011518D01*
X011373Y011502D01*
X011013Y011502D01*
X010652Y011518D01*
X010293Y011550D01*
X010294Y011550D02*
X010242Y011560D01*
X010191Y011574D01*
X010141Y011592D01*
X010093Y011613D01*
X010046Y011638D01*
X010002Y011666D01*
X009959Y011698D01*
X009919Y011732D01*
X009882Y011770D01*
X009848Y011810D01*
X009816Y011852D01*
X009788Y011897D01*
X009764Y011944D01*
X009743Y011992D01*
X009725Y012042D01*
X009712Y012093D01*
X009702Y012145D01*
X009696Y012197D01*
X009694Y012250D01*
X009696Y012303D01*
X009702Y012355D01*
X009712Y012407D01*
X009725Y012458D01*
X009743Y012508D01*
X009764Y012556D01*
X009788Y012603D01*
X009816Y012648D01*
X009848Y012690D01*
X009882Y012730D01*
X009919Y012768D01*
X009959Y012802D01*
X010002Y012834D01*
X010046Y012862D01*
X010093Y012887D01*
X010141Y012908D01*
X010191Y012926D01*
X010242Y012940D01*
X010294Y012950D01*
X012093Y012950D02*
X012145Y012940D01*
X012196Y012926D01*
X012246Y012908D01*
X012294Y012887D01*
X012341Y012862D01*
X012385Y012834D01*
X012428Y012802D01*
X012468Y012768D01*
X012505Y012730D01*
X012539Y012690D01*
X012571Y012648D01*
X012599Y012603D01*
X012623Y012556D01*
X012644Y012508D01*
X012662Y012458D01*
X012675Y012407D01*
X012685Y012355D01*
X012691Y012303D01*
X012693Y012250D01*
X012691Y012197D01*
X012685Y012145D01*
X012675Y012093D01*
X012662Y012042D01*
X012644Y011992D01*
X012623Y011944D01*
X012599Y011897D01*
X012571Y011852D01*
X012539Y011810D01*
X012505Y011770D01*
X012468Y011732D01*
X012428Y011698D01*
X012385Y011666D01*
X012341Y011638D01*
X012294Y011613D01*
X012246Y011592D01*
X012196Y011574D01*
X012145Y011560D01*
X012093Y011550D01*
X012893Y005450D02*
X012893Y004950D01*
X012093Y012950D02*
X011734Y012982D01*
X011373Y012998D01*
X011013Y012998D01*
X010652Y012982D01*
X010293Y012950D01*
X004243Y008450D02*
X004243Y007950D01*
X004043Y007750D01*
X002743Y007750D01*
X002543Y007950D01*
X002543Y008450D01*
X002743Y008650D01*
X004043Y008650D01*
X004243Y008450D01*
X001843Y006050D02*
X001845Y006102D01*
X001851Y006154D01*
X001861Y006206D01*
X001874Y006256D01*
X001891Y006306D01*
X001912Y006354D01*
X001937Y006400D01*
X001965Y006444D01*
X001996Y006486D01*
X002030Y006526D01*
X002067Y006563D01*
X002107Y006597D01*
X002149Y006628D01*
X002193Y006656D01*
X002239Y006681D01*
X002287Y006702D01*
X002337Y006719D01*
X002387Y006732D01*
X002439Y006742D01*
X002491Y006748D01*
X002543Y006750D01*
X002595Y006748D01*
X002647Y006742D01*
X002699Y006732D01*
X002749Y006719D01*
X002799Y006702D01*
X002847Y006681D01*
X002893Y006656D01*
X002937Y006628D01*
X002979Y006597D01*
X003019Y006563D01*
X003056Y006526D01*
X003090Y006486D01*
X003121Y006444D01*
X003149Y006400D01*
X003174Y006354D01*
X003195Y006306D01*
X003212Y006256D01*
X003225Y006206D01*
X003235Y006154D01*
X003241Y006102D01*
X003243Y006050D01*
X003241Y005998D01*
X003235Y005946D01*
X003225Y005894D01*
X003212Y005844D01*
X003195Y005794D01*
X003174Y005746D01*
X003149Y005700D01*
X003121Y005656D01*
X003090Y005614D01*
X003056Y005574D01*
X003019Y005537D01*
X002979Y005503D01*
X002937Y005472D01*
X002893Y005444D01*
X002847Y005419D01*
X002799Y005398D01*
X002749Y005381D01*
X002699Y005368D01*
X002647Y005358D01*
X002595Y005352D01*
X002543Y005350D01*
X002491Y005352D01*
X002439Y005358D01*
X002387Y005368D01*
X002337Y005381D01*
X002287Y005398D01*
X002239Y005419D01*
X002193Y005444D01*
X002149Y005472D01*
X002107Y005503D01*
X002067Y005537D01*
X002030Y005574D01*
X001996Y005614D01*
X001965Y005656D01*
X001937Y005700D01*
X001912Y005746D01*
X001891Y005794D01*
X001874Y005844D01*
X001861Y005894D01*
X001851Y005946D01*
X001845Y005998D01*
X001843Y006050D01*
X013643Y021750D02*
X015143Y021750D01*
X016313Y022935D02*
X016156Y023092D01*
X016627Y023092D01*
X016627Y022935D02*
X016627Y023249D01*
X013893Y023950D02*
X013893Y024450D01*
X012893Y024450D02*
X012893Y023950D01*
X010893Y023950D02*
X010893Y024450D01*
X024593Y023800D02*
X024593Y022200D01*
X024595Y022183D01*
X024599Y022166D01*
X024606Y022150D01*
X024616Y022136D01*
X024629Y022123D01*
X024643Y022113D01*
X024659Y022106D01*
X024676Y022102D01*
X024693Y022100D01*
X025293Y022100D01*
X025310Y022102D01*
X025327Y022106D01*
X025343Y022113D01*
X025357Y022123D01*
X025370Y022136D01*
X025380Y022150D01*
X025387Y022166D01*
X025391Y022183D01*
X025393Y022200D01*
X025393Y023800D01*
X025391Y023817D01*
X025387Y023834D01*
X025380Y023850D01*
X025370Y023864D01*
X025357Y023877D01*
X025343Y023887D01*
X025327Y023894D01*
X025310Y023898D01*
X025293Y023900D01*
X024693Y023900D01*
X024676Y023898D01*
X024659Y023894D01*
X024643Y023887D01*
X024629Y023877D01*
X024616Y023864D01*
X024606Y023850D01*
X024599Y023834D01*
X024595Y023817D01*
X024593Y023800D01*
X025593Y024000D02*
X026193Y024000D01*
X026193Y022000D01*
X025593Y022000D01*
X025593Y024000D01*
X026493Y021600D02*
X027093Y021600D01*
X027110Y021598D01*
X027127Y021594D01*
X027143Y021587D01*
X027157Y021577D01*
X027170Y021564D01*
X027180Y021550D01*
X027187Y021534D01*
X027191Y021517D01*
X027193Y021500D01*
X027193Y019900D01*
X027191Y019883D01*
X027187Y019866D01*
X027180Y019850D01*
X027170Y019836D01*
X027157Y019823D01*
X027143Y019813D01*
X027127Y019806D01*
X027110Y019802D01*
X027093Y019800D01*
X026493Y019800D01*
X026476Y019802D01*
X026459Y019806D01*
X026443Y019813D01*
X026429Y019823D01*
X026416Y019836D01*
X026406Y019850D01*
X026399Y019866D01*
X026395Y019883D01*
X026393Y019900D01*
X026393Y021500D01*
X026395Y021517D01*
X026399Y021534D01*
X026406Y021550D01*
X026416Y021564D01*
X026429Y021577D01*
X026443Y021587D01*
X026459Y021594D01*
X026476Y021598D01*
X026493Y021600D01*
X027393Y021700D02*
X027993Y021700D01*
X027993Y019700D01*
X027393Y019700D01*
X027393Y021700D01*
X026193Y019500D02*
X025593Y019500D01*
X025593Y017500D01*
X026193Y017500D01*
X026193Y019500D01*
X025393Y019300D02*
X025393Y017700D01*
X025391Y017683D01*
X025387Y017666D01*
X025380Y017650D01*
X025370Y017636D01*
X025357Y017623D01*
X025343Y017613D01*
X025327Y017606D01*
X025310Y017602D01*
X025293Y017600D01*
X024693Y017600D01*
X024676Y017602D01*
X024659Y017606D01*
X024643Y017613D01*
X024629Y017623D01*
X024616Y017636D01*
X024606Y017650D01*
X024599Y017666D01*
X024595Y017683D01*
X024593Y017700D01*
X024593Y019300D01*
X024595Y019317D01*
X024599Y019334D01*
X024606Y019350D01*
X024616Y019364D01*
X024629Y019377D01*
X024643Y019387D01*
X024659Y019394D01*
X024676Y019398D01*
X024693Y019400D01*
X025293Y019400D01*
X025310Y019398D01*
X025327Y019394D01*
X025343Y019387D01*
X025357Y019377D01*
X025370Y019364D01*
X025380Y019350D01*
X025387Y019334D01*
X025391Y019317D01*
X025393Y019300D01*
X026493Y017100D02*
X027093Y017100D01*
X027110Y017098D01*
X027127Y017094D01*
X027143Y017087D01*
X027157Y017077D01*
X027170Y017064D01*
X027180Y017050D01*
X027187Y017034D01*
X027191Y017017D01*
X027193Y017000D01*
X027193Y015400D01*
X027191Y015383D01*
X027187Y015366D01*
X027180Y015350D01*
X027170Y015336D01*
X027157Y015323D01*
X027143Y015313D01*
X027127Y015306D01*
X027110Y015302D01*
X027093Y015300D01*
X026493Y015300D01*
X026476Y015302D01*
X026459Y015306D01*
X026443Y015313D01*
X026429Y015323D01*
X026416Y015336D01*
X026406Y015350D01*
X026399Y015366D01*
X026395Y015383D01*
X026393Y015400D01*
X026393Y017000D01*
X026395Y017017D01*
X026399Y017034D01*
X026406Y017050D01*
X026416Y017064D01*
X026429Y017077D01*
X026443Y017087D01*
X026459Y017094D01*
X026476Y017098D01*
X026493Y017100D01*
X027393Y017200D02*
X027993Y017200D01*
X027993Y015200D01*
X027393Y015200D01*
X027393Y017200D01*
X026193Y015200D02*
X025593Y015200D01*
X025593Y013200D01*
X026193Y013200D01*
X026193Y015200D01*
X025393Y015000D02*
X025393Y013400D01*
X025391Y013383D01*
X025387Y013366D01*
X025380Y013350D01*
X025370Y013336D01*
X025357Y013323D01*
X025343Y013313D01*
X025327Y013306D01*
X025310Y013302D01*
X025293Y013300D01*
X024693Y013300D01*
X024676Y013302D01*
X024659Y013306D01*
X024643Y013313D01*
X024629Y013323D01*
X024616Y013336D01*
X024606Y013350D01*
X024599Y013366D01*
X024595Y013383D01*
X024593Y013400D01*
X024593Y015000D01*
X024595Y015017D01*
X024599Y015034D01*
X024606Y015050D01*
X024616Y015064D01*
X024629Y015077D01*
X024643Y015087D01*
X024659Y015094D01*
X024676Y015098D01*
X024693Y015100D01*
X025293Y015100D01*
X025310Y015098D01*
X025327Y015094D01*
X025343Y015087D01*
X025357Y015077D01*
X025370Y015064D01*
X025380Y015050D01*
X025387Y015034D01*
X025391Y015017D01*
X025393Y015000D01*
X026593Y012700D02*
X027193Y012700D01*
X027210Y012698D01*
X027227Y012694D01*
X027243Y012687D01*
X027257Y012677D01*
X027270Y012664D01*
X027280Y012650D01*
X027287Y012634D01*
X027291Y012617D01*
X027293Y012600D01*
X027293Y011000D01*
X027291Y010983D01*
X027287Y010966D01*
X027280Y010950D01*
X027270Y010936D01*
X027257Y010923D01*
X027243Y010913D01*
X027227Y010906D01*
X027210Y010902D01*
X027193Y010900D01*
X026593Y010900D01*
X026576Y010902D01*
X026559Y010906D01*
X026543Y010913D01*
X026529Y010923D01*
X026516Y010936D01*
X026506Y010950D01*
X026499Y010966D01*
X026495Y010983D01*
X026493Y011000D01*
X026493Y012600D01*
X026495Y012617D01*
X026499Y012634D01*
X026506Y012650D01*
X026516Y012664D01*
X026529Y012677D01*
X026543Y012687D01*
X026559Y012694D01*
X026576Y012698D01*
X026593Y012700D01*
X027493Y012800D02*
X028093Y012800D01*
X028093Y010800D01*
X027493Y010800D01*
X027493Y012800D01*
X026193Y010600D02*
X025593Y010600D01*
X025593Y008600D01*
X026193Y008600D01*
X026193Y010600D01*
X025393Y010400D02*
X025393Y008800D01*
X025391Y008783D01*
X025387Y008766D01*
X025380Y008750D01*
X025370Y008736D01*
X025357Y008723D01*
X025343Y008713D01*
X025327Y008706D01*
X025310Y008702D01*
X025293Y008700D01*
X024693Y008700D01*
X024676Y008702D01*
X024659Y008706D01*
X024643Y008713D01*
X024629Y008723D01*
X024616Y008736D01*
X024606Y008750D01*
X024599Y008766D01*
X024595Y008783D01*
X024593Y008800D01*
X024593Y010400D01*
X024595Y010417D01*
X024599Y010434D01*
X024606Y010450D01*
X024616Y010464D01*
X024629Y010477D01*
X024643Y010487D01*
X024659Y010494D01*
X024676Y010498D01*
X024693Y010500D01*
X025293Y010500D01*
X025310Y010498D01*
X025327Y010494D01*
X025343Y010487D01*
X025357Y010477D01*
X025370Y010464D01*
X025380Y010450D01*
X025387Y010434D01*
X025391Y010417D01*
X025393Y010400D01*
X027393Y008300D02*
X027993Y008300D01*
X027993Y006300D01*
X027393Y006300D01*
X027393Y008300D01*
X027193Y008100D02*
X027193Y006500D01*
X027191Y006483D01*
X027187Y006466D01*
X027180Y006450D01*
X027170Y006436D01*
X027157Y006423D01*
X027143Y006413D01*
X027127Y006406D01*
X027110Y006402D01*
X027093Y006400D01*
X026493Y006400D01*
X026476Y006402D01*
X026459Y006406D01*
X026443Y006413D01*
X026429Y006423D01*
X026416Y006436D01*
X026406Y006450D01*
X026399Y006466D01*
X026395Y006483D01*
X026393Y006500D01*
X026393Y008100D01*
X026395Y008117D01*
X026399Y008134D01*
X026406Y008150D01*
X026416Y008164D01*
X026429Y008177D01*
X026443Y008187D01*
X026459Y008194D01*
X026476Y008198D01*
X026493Y008200D01*
X027093Y008200D01*
X027110Y008198D01*
X027127Y008194D01*
X027143Y008187D01*
X027157Y008177D01*
X027170Y008164D01*
X027180Y008150D01*
X027187Y008134D01*
X027191Y008117D01*
X027193Y008100D01*
D11*
X015143Y021750D02*
X015197Y021707D01*
X015249Y021661D01*
X015298Y021612D01*
X015345Y021560D01*
X015388Y021506D01*
X015429Y021450D01*
X015466Y021391D01*
X015500Y021331D01*
X015530Y021268D01*
X015557Y021205D01*
X015581Y021139D01*
X015601Y021073D01*
X015617Y021005D01*
X015629Y020937D01*
X015637Y020868D01*
X015642Y020799D01*
X015643Y020729D01*
X015640Y020660D01*
X015633Y020591D01*
X015622Y020523D01*
X015608Y020455D01*
X015589Y020388D01*
X015567Y020322D01*
X015542Y020257D01*
X015513Y020194D01*
X015480Y020133D01*
X015444Y020074D01*
X015405Y020017D01*
X015363Y019961D01*
X015318Y019909D01*
X015270Y019859D01*
X015219Y019812D01*
X015165Y019767D01*
X015110Y019726D01*
X015052Y019688D01*
X014992Y019653D01*
X014930Y019621D01*
X014867Y019593D01*
X014802Y019569D01*
X014736Y019548D01*
X014668Y019531D01*
X014600Y019517D01*
X014531Y019508D01*
X014462Y019502D01*
X014393Y019500D01*
X014324Y019502D01*
X014255Y019508D01*
X014186Y019517D01*
X014118Y019531D01*
X014050Y019548D01*
X013984Y019569D01*
X013919Y019593D01*
X013856Y019621D01*
X013794Y019653D01*
X013734Y019688D01*
X013676Y019726D01*
X013621Y019767D01*
X013567Y019812D01*
X013516Y019859D01*
X013468Y019909D01*
X013423Y019961D01*
X013381Y020017D01*
X013342Y020074D01*
X013306Y020133D01*
X013273Y020194D01*
X013244Y020257D01*
X013219Y020322D01*
X013197Y020388D01*
X013178Y020455D01*
X013164Y020523D01*
X013153Y020591D01*
X013146Y020660D01*
X013143Y020729D01*
X013144Y020799D01*
X013149Y020868D01*
X013157Y020937D01*
X013169Y021005D01*
X013185Y021073D01*
X013205Y021139D01*
X013229Y021205D01*
X013256Y021268D01*
X013286Y021331D01*
X013320Y021391D01*
X013357Y021450D01*
X013398Y021506D01*
X013441Y021560D01*
X013488Y021612D01*
X013537Y021661D01*
X013589Y021707D01*
X013643Y021750D01*
X012343Y019500D02*
X012397Y019543D01*
X012449Y019589D01*
X012498Y019638D01*
X012545Y019690D01*
X012588Y019744D01*
X012629Y019800D01*
X012666Y019859D01*
X012700Y019919D01*
X012730Y019982D01*
X012757Y020045D01*
X012781Y020111D01*
X012801Y020177D01*
X012817Y020245D01*
X012829Y020313D01*
X012837Y020382D01*
X012842Y020451D01*
X012843Y020521D01*
X012840Y020590D01*
X012833Y020659D01*
X012822Y020727D01*
X012808Y020795D01*
X012789Y020862D01*
X012767Y020928D01*
X012742Y020993D01*
X012713Y021056D01*
X012680Y021117D01*
X012644Y021176D01*
X012605Y021233D01*
X012563Y021289D01*
X012518Y021341D01*
X012470Y021391D01*
X012419Y021438D01*
X012365Y021483D01*
X012310Y021524D01*
X012252Y021562D01*
X012192Y021597D01*
X012130Y021629D01*
X012067Y021657D01*
X012002Y021681D01*
X011936Y021702D01*
X011868Y021719D01*
X011800Y021733D01*
X011731Y021742D01*
X011662Y021748D01*
X011593Y021750D01*
X011524Y021748D01*
X011455Y021742D01*
X011386Y021733D01*
X011318Y021719D01*
X011250Y021702D01*
X011184Y021681D01*
X011119Y021657D01*
X011056Y021629D01*
X010994Y021597D01*
X010934Y021562D01*
X010876Y021524D01*
X010821Y021483D01*
X010767Y021438D01*
X010716Y021391D01*
X010668Y021341D01*
X010623Y021289D01*
X010581Y021233D01*
X010542Y021176D01*
X010506Y021117D01*
X010473Y021056D01*
X010444Y020993D01*
X010419Y020928D01*
X010397Y020862D01*
X010378Y020795D01*
X010364Y020727D01*
X010353Y020659D01*
X010346Y020590D01*
X010343Y020521D01*
X010344Y020451D01*
X010349Y020382D01*
X010357Y020313D01*
X010369Y020245D01*
X010385Y020177D01*
X010405Y020111D01*
X010429Y020045D01*
X010456Y019982D01*
X010486Y019919D01*
X010520Y019859D01*
X010557Y019800D01*
X010598Y019744D01*
X010641Y019690D01*
X010688Y019638D01*
X010737Y019589D01*
X010789Y019543D01*
X010843Y019500D01*
X009632Y016001D02*
X009251Y016001D01*
X009251Y015240D01*
X009251Y015494D02*
X009632Y015494D01*
X009759Y015620D01*
X009759Y015874D01*
X009632Y016001D01*
X008967Y016001D02*
X008967Y015494D01*
X008713Y015240D01*
X008460Y015494D01*
X008460Y016001D01*
X008175Y015747D02*
X008175Y015240D01*
X007668Y015240D02*
X007668Y015747D01*
X007921Y016001D01*
X008175Y015747D01*
X008175Y015620D02*
X007668Y015620D01*
X009505Y015494D02*
X009759Y015240D01*
X008343Y010200D02*
X007843Y010200D01*
X007593Y009950D01*
X007593Y009450D01*
X007843Y009200D01*
X008343Y009200D01*
X008593Y009450D01*
X008593Y009950D01*
X008343Y010200D01*
X007593Y009950D02*
X007343Y010200D01*
X006843Y010200D01*
X006593Y009950D01*
X006593Y009450D01*
X006843Y009200D01*
X007343Y009200D01*
X007593Y009450D01*
X006593Y009450D02*
X006343Y009200D01*
X005843Y009200D01*
X005593Y009450D01*
X005343Y009200D01*
X004843Y009200D01*
X004593Y009450D01*
X004343Y009200D01*
X003843Y009200D01*
X003593Y009450D01*
X003593Y009950D01*
X003843Y010200D01*
X004343Y010200D01*
X004593Y009950D01*
X004843Y010200D01*
X005343Y010200D01*
X005593Y009950D01*
X005843Y010200D01*
X006343Y010200D01*
X006593Y009950D01*
X005593Y009950D02*
X005593Y009450D01*
X004593Y009450D02*
X004593Y009950D01*
X003593Y009950D02*
X003343Y010200D01*
X002843Y010200D01*
X002593Y009950D01*
X002593Y009450D01*
X002843Y009200D01*
X003343Y009200D01*
X003593Y009450D01*
X003543Y007250D02*
X001543Y007250D01*
X001343Y007050D01*
X001343Y005050D01*
X001543Y004850D01*
X003543Y004850D01*
X003743Y005050D01*
X003743Y007050D01*
X003543Y007250D01*
D12*
X007584Y003316D02*
X007900Y003316D01*
X008005Y003210D01*
X008005Y003000D01*
X007900Y002895D01*
X007584Y002895D01*
X007584Y002685D02*
X007584Y003316D01*
X007038Y003105D02*
X007038Y002790D01*
X006933Y002685D01*
X006828Y002790D01*
X006723Y002685D01*
X006617Y002790D01*
X006617Y003105D01*
X006393Y003105D02*
X006393Y002790D01*
X006288Y002685D01*
X006183Y002790D01*
X006078Y002685D01*
X005973Y002790D01*
X005973Y003105D01*
X005749Y003105D02*
X005749Y002790D01*
X005644Y002685D01*
X005539Y002790D01*
X005433Y002685D01*
X005328Y002790D01*
X005328Y003105D01*
X007262Y002790D02*
X007367Y002790D01*
X007367Y002685D01*
X007262Y002685D01*
X007262Y002790D01*
X007794Y002895D02*
X008005Y002685D01*
X008229Y002790D02*
X008334Y002685D01*
X008544Y002685D01*
X008649Y002790D01*
X008649Y003000D01*
X008544Y003105D01*
X008334Y003105D01*
X008229Y003000D01*
X008229Y002790D01*
X008873Y002685D02*
X008873Y003316D01*
X008873Y003105D02*
X009189Y003105D01*
X009294Y003000D01*
X009294Y002790D01*
X009189Y002685D01*
X008873Y002685D01*
X009518Y002790D02*
X009623Y002685D01*
X009833Y002685D01*
X009938Y002790D01*
X009938Y003000D01*
X009833Y003105D01*
X009623Y003105D01*
X009518Y003000D01*
X009518Y002790D01*
X010162Y003105D02*
X010373Y003105D01*
X010268Y003210D02*
X010268Y002790D01*
X010373Y002685D01*
X010592Y002790D02*
X010697Y002685D01*
X010907Y002685D01*
X011013Y002790D01*
X011013Y003210D01*
X010907Y003316D01*
X010697Y003316D01*
X010592Y003210D01*
X010592Y002790D01*
X011237Y002685D02*
X011552Y002685D01*
X011657Y002790D01*
X011657Y003000D01*
X011552Y003105D01*
X011237Y003105D01*
X011237Y002475D01*
X011881Y002790D02*
X011881Y003000D01*
X011986Y003105D01*
X012197Y003105D01*
X012302Y003000D01*
X012302Y002895D01*
X011881Y002895D01*
X011881Y002790D02*
X011986Y002685D01*
X012197Y002685D01*
X012526Y002685D02*
X012526Y003105D01*
X012841Y003105D01*
X012946Y003000D01*
X012946Y002685D01*
X013170Y002685D02*
X013275Y002685D01*
X013275Y002790D01*
X013170Y002790D01*
X013170Y002685D01*
X013493Y002685D02*
X013808Y002685D01*
X013913Y002790D01*
X013913Y003000D01*
X013808Y003105D01*
X013493Y003105D01*
X013493Y003316D02*
X013493Y002685D01*
X014137Y002685D02*
X014347Y002685D01*
X014242Y002685D02*
X014242Y003105D01*
X014137Y003105D01*
X014242Y003316D02*
X014242Y003421D01*
X014567Y003105D02*
X014987Y003105D01*
X014567Y002685D01*
X014987Y002685D01*
X007281Y025175D02*
X007281Y025805D01*
X007596Y025805D01*
X007701Y025700D01*
X007701Y025490D01*
X007596Y025385D01*
X007281Y025385D01*
X007057Y025490D02*
X007057Y025910D01*
X006952Y026016D01*
X006741Y026016D01*
X006636Y025910D01*
X006636Y025490D01*
X006741Y025385D01*
X006952Y025385D01*
X007057Y025490D01*
X006417Y025385D02*
X006312Y025490D01*
X006312Y025910D01*
X006207Y025805D02*
X006417Y025805D01*
X005982Y025700D02*
X005982Y025490D01*
X005877Y025385D01*
X005667Y025385D01*
X005562Y025490D01*
X005562Y025700D01*
X005667Y025805D01*
X005877Y025805D01*
X005982Y025700D01*
X005338Y025700D02*
X005338Y025490D01*
X005233Y025385D01*
X004917Y025385D01*
X004917Y026016D01*
X004917Y025805D02*
X005233Y025805D01*
X005338Y025700D01*
X004693Y025700D02*
X004693Y025490D01*
X004588Y025385D01*
X004378Y025385D01*
X004273Y025490D01*
X004273Y025700D01*
X004378Y025805D01*
X004588Y025805D01*
X004693Y025700D01*
X004049Y025700D02*
X003944Y025595D01*
X003628Y025595D01*
X003628Y025385D02*
X003628Y026016D01*
X003944Y026016D01*
X004049Y025910D01*
X004049Y025700D01*
X003839Y025595D02*
X004049Y025385D01*
X004049Y026535D02*
X003628Y026535D01*
X004049Y026955D01*
X004049Y027060D01*
X003944Y027166D01*
X003733Y027166D01*
X003628Y027060D01*
X004273Y027060D02*
X004378Y027166D01*
X004588Y027166D01*
X004693Y027060D01*
X004693Y026955D01*
X004273Y026535D01*
X004693Y026535D01*
X004917Y026535D02*
X005338Y026535D01*
X005128Y026535D02*
X005128Y027166D01*
X004917Y026955D01*
X006207Y026745D02*
X006522Y026745D01*
X006627Y026850D01*
X006627Y027060D01*
X006522Y027166D01*
X006207Y027166D01*
X006207Y026535D01*
X006417Y026745D02*
X006627Y026535D01*
X006851Y026640D02*
X006956Y026535D01*
X007166Y026535D01*
X007271Y026640D01*
X007271Y026850D01*
X007166Y026955D01*
X006956Y026955D01*
X006851Y026850D01*
X006851Y026640D01*
X007496Y026535D02*
X007496Y027166D01*
X007496Y026955D02*
X007811Y026955D01*
X007916Y026850D01*
X007916Y026640D01*
X007811Y026535D01*
X007496Y026535D01*
X008140Y026640D02*
X008245Y026535D01*
X008455Y026535D01*
X008561Y026640D01*
X008561Y026850D01*
X008455Y026955D01*
X008245Y026955D01*
X008140Y026850D01*
X008140Y026640D01*
X008785Y026955D02*
X008995Y026955D01*
X008890Y027060D02*
X008890Y026640D01*
X008995Y026535D01*
X009214Y026535D02*
X009425Y026535D01*
X009320Y026535D02*
X009320Y026955D01*
X009214Y026955D01*
X009320Y027166D02*
X009320Y027271D01*
X009644Y026850D02*
X009644Y026640D01*
X009749Y026535D01*
X010064Y026535D01*
X010064Y026955D02*
X009749Y026955D01*
X009644Y026850D01*
X009859Y026016D02*
X010174Y026016D01*
X010279Y025910D01*
X010279Y025700D01*
X010174Y025595D01*
X009859Y025595D01*
X009859Y025385D02*
X009859Y026016D01*
X010504Y025805D02*
X010504Y025385D01*
X010924Y025385D02*
X010924Y025700D01*
X010819Y025805D01*
X010504Y025805D01*
X011148Y025700D02*
X011148Y025490D01*
X011253Y025385D01*
X011463Y025385D01*
X011568Y025595D02*
X011148Y025595D01*
X011148Y025700D02*
X011253Y025805D01*
X011463Y025805D01*
X011568Y025700D01*
X011568Y025595D01*
X011793Y025490D02*
X011898Y025385D01*
X012213Y025385D01*
X012213Y025805D01*
X012437Y025805D02*
X012437Y025910D01*
X012542Y026016D01*
X012752Y026016D01*
X012858Y025910D01*
X012752Y025700D02*
X012858Y025595D01*
X012858Y025490D01*
X012752Y025385D01*
X012542Y025385D01*
X012437Y025490D01*
X012542Y025700D02*
X012752Y025700D01*
X012542Y025700D02*
X012437Y025805D01*
X013082Y025700D02*
X013187Y025805D01*
X013397Y025805D01*
X013502Y025700D01*
X013502Y025385D01*
X013726Y025385D02*
X013936Y025385D01*
X013831Y025385D02*
X013831Y025805D01*
X013726Y025805D01*
X013831Y026016D02*
X013831Y026121D01*
X014156Y025700D02*
X014261Y025805D01*
X014471Y025805D01*
X014576Y025700D01*
X014576Y025595D01*
X014156Y025595D01*
X014156Y025490D02*
X014156Y025700D01*
X014156Y025490D02*
X014261Y025385D01*
X014471Y025385D01*
X014801Y025385D02*
X015011Y025385D01*
X014906Y025385D02*
X014906Y026016D01*
X014801Y026016D01*
X014901Y026535D02*
X014586Y026535D01*
X014361Y026535D02*
X014361Y026850D01*
X014256Y026955D01*
X014151Y026850D01*
X014151Y026535D01*
X013941Y026535D02*
X013941Y026955D01*
X014046Y026955D01*
X014151Y026850D01*
X014586Y026850D02*
X014691Y026745D01*
X014901Y026745D01*
X015006Y026640D01*
X014901Y026535D01*
X015006Y026955D02*
X014691Y026955D01*
X014586Y026850D01*
X013717Y026850D02*
X013717Y026745D01*
X013297Y026745D01*
X013297Y026640D02*
X013297Y026850D01*
X013402Y026955D01*
X013612Y026955D01*
X013717Y026850D01*
X013612Y026535D02*
X013402Y026535D01*
X013297Y026640D01*
X013077Y026535D02*
X012972Y026640D01*
X012972Y027060D01*
X012867Y026955D02*
X013077Y026955D01*
X012643Y026955D02*
X012327Y026955D01*
X012222Y026850D01*
X012327Y026745D01*
X012538Y026745D01*
X012643Y026640D01*
X012538Y026535D01*
X012222Y026535D01*
X011998Y026535D02*
X011683Y026535D01*
X011578Y026640D01*
X011578Y026955D01*
X011354Y027060D02*
X011248Y027166D01*
X011038Y027166D01*
X010933Y027060D01*
X010933Y026955D01*
X011038Y026850D01*
X011248Y026850D01*
X011354Y026745D01*
X011354Y026640D01*
X011248Y026535D01*
X011038Y026535D01*
X010933Y026640D01*
X011788Y026325D02*
X011893Y026325D01*
X011998Y026430D01*
X011998Y026955D01*
X013082Y026016D02*
X013082Y025385D01*
X011793Y025490D02*
X011793Y025805D01*
X008990Y025700D02*
X008990Y025385D01*
X008990Y025700D02*
X008885Y025805D01*
X008570Y025805D01*
X008570Y025385D01*
X008346Y025595D02*
X007925Y025595D01*
X007925Y025490D02*
X007925Y025700D01*
X008030Y025805D01*
X008241Y025805D01*
X008346Y025700D01*
X008346Y025595D01*
X008241Y025385D02*
X008030Y025385D01*
X007925Y025490D01*
X015230Y025490D02*
X015230Y025700D01*
X015335Y025805D01*
X015651Y025805D01*
X015651Y026016D02*
X015651Y025385D01*
X015335Y025385D01*
X015230Y025490D01*
X016519Y025805D02*
X016730Y025385D01*
X016940Y025805D01*
X017164Y025805D02*
X017374Y026016D01*
X017374Y025385D01*
X017164Y025385D02*
X017584Y025385D01*
D13*
X009523Y013092D02*
X009523Y012852D01*
X009283Y013092D01*
X009283Y012852D01*
X009343Y012724D02*
X009343Y012483D01*
X009523Y012483D02*
X009163Y012483D01*
X009163Y012355D02*
X009523Y012355D01*
X009523Y012115D02*
X009163Y012115D01*
X009283Y012235D01*
X009163Y012355D01*
X009163Y012724D02*
X009523Y012724D01*
X009463Y011987D02*
X009403Y011987D01*
X009343Y011927D01*
X009343Y011747D01*
X009463Y011747D01*
X009523Y011807D01*
X009523Y011927D01*
X009463Y011987D01*
X009223Y011867D02*
X009343Y011747D01*
X009223Y011867D02*
X009163Y011987D01*
X009163Y011499D02*
X009523Y011499D01*
X009523Y011619D02*
X009523Y011378D01*
X009283Y011378D02*
X009163Y011499D01*
D14*
X001323Y004480D02*
X001323Y003980D01*
X001323Y004147D02*
X001574Y004147D01*
X001657Y004230D01*
X001657Y004397D01*
X001574Y004480D01*
X001323Y004480D01*
X001490Y004147D02*
X001657Y003980D01*
X001839Y003980D02*
X002173Y003980D01*
X002355Y004063D02*
X002438Y003980D01*
X002605Y003980D01*
X002688Y004063D01*
X002688Y004147D01*
X002605Y004230D01*
X002438Y004230D01*
X002355Y004314D01*
X002355Y004397D01*
X002438Y004480D01*
X002605Y004480D01*
X002688Y004397D01*
X002870Y004480D02*
X002870Y003980D01*
X003204Y003980D01*
X003037Y004230D02*
X002870Y004230D01*
X002870Y004480D02*
X003204Y004480D01*
X003386Y004480D02*
X003720Y004480D01*
X003553Y004480D02*
X003553Y003980D01*
X002173Y004480D02*
X001839Y004480D01*
X001839Y003980D01*
X001839Y004230D02*
X002006Y004230D01*
X002257Y007630D02*
X002257Y007687D01*
X002313Y007687D01*
X002313Y007630D01*
X002257Y007630D01*
X002313Y007814D02*
X002313Y008041D01*
X002313Y007928D02*
X001973Y007928D01*
X002086Y007814D01*
X002086Y008182D02*
X002257Y008182D01*
X002313Y008239D01*
X002313Y008409D01*
X002086Y008409D01*
X002143Y008551D02*
X002143Y008664D01*
X002313Y008551D02*
X001973Y008551D01*
X001973Y008778D01*
X002680Y010380D02*
X002793Y010380D01*
X002850Y010437D01*
X002850Y010550D01*
X002737Y010550D01*
X002850Y010664D02*
X002793Y010720D01*
X002680Y010720D01*
X002623Y010664D01*
X002623Y010437D01*
X002680Y010380D01*
X002992Y010380D02*
X002992Y010720D01*
X003162Y010720D01*
X003219Y010664D01*
X003219Y010550D01*
X003162Y010493D01*
X002992Y010493D01*
X003105Y010493D02*
X003219Y010380D01*
X003360Y010380D02*
X003360Y010720D01*
X003587Y010380D01*
X003587Y010720D01*
X007623Y010720D02*
X007623Y010380D01*
X007793Y010380D01*
X007850Y010437D01*
X007850Y010493D01*
X007793Y010550D01*
X007623Y010550D01*
X007623Y010720D02*
X007793Y010720D01*
X007850Y010664D01*
X007850Y010607D01*
X007793Y010550D01*
X007992Y010720D02*
X007992Y010380D01*
X008219Y010380D01*
X008360Y010380D02*
X008360Y010720D01*
X008417Y010550D02*
X008587Y010380D01*
X008360Y010493D02*
X008587Y010720D01*
X011234Y011164D02*
X011448Y010950D01*
X011448Y010630D01*
X011448Y010950D02*
X011661Y011164D01*
X011661Y011271D01*
X011879Y011057D02*
X012092Y011271D01*
X012092Y010630D01*
X011879Y010630D02*
X012306Y010630D01*
X011234Y011164D02*
X011234Y011271D01*
X014023Y011371D02*
X014023Y010730D01*
X014023Y010944D02*
X014344Y010944D01*
X014450Y011050D01*
X014450Y011264D01*
X014344Y011371D01*
X014023Y011371D01*
X014023Y011730D02*
X014023Y012371D01*
X014344Y012371D01*
X014450Y012264D01*
X014450Y012050D01*
X014344Y011944D01*
X014023Y011944D01*
X014237Y011944D02*
X014450Y011730D01*
X014668Y011730D02*
X015095Y011730D01*
X014881Y011730D02*
X014881Y012371D01*
X014668Y012157D01*
X014668Y012730D02*
X015095Y012730D01*
X014881Y012730D02*
X014881Y013371D01*
X014668Y013157D01*
X014450Y013264D02*
X014450Y013050D01*
X014344Y012944D01*
X014023Y012944D01*
X014237Y012944D02*
X014450Y012730D01*
X014023Y012730D02*
X014023Y013371D01*
X014344Y013371D01*
X014450Y013264D01*
X015312Y013264D02*
X015312Y012837D01*
X015739Y013264D01*
X015739Y012837D01*
X015633Y012730D01*
X015419Y012730D01*
X015312Y012837D01*
X015419Y012371D02*
X015633Y012371D01*
X015739Y012264D01*
X015312Y011837D01*
X015419Y011730D01*
X015633Y011730D01*
X015739Y011837D01*
X015739Y012264D01*
X015957Y012371D02*
X015957Y012050D01*
X016170Y012157D01*
X016277Y012157D01*
X016384Y012050D01*
X016384Y011837D01*
X016277Y011730D01*
X016064Y011730D01*
X015957Y011837D01*
X015957Y012371D02*
X016384Y012371D01*
X016277Y012730D02*
X016064Y012730D01*
X015957Y012837D01*
X015957Y013050D01*
X016277Y013050D01*
X016384Y012944D01*
X016384Y012837D01*
X016277Y012730D01*
X015957Y013050D02*
X016170Y013264D01*
X016384Y013371D01*
X015739Y013264D02*
X015633Y013371D01*
X015419Y013371D01*
X015312Y013264D01*
X015419Y012371D02*
X015312Y012264D01*
X015312Y011837D01*
X015419Y011371D02*
X015633Y011371D01*
X015739Y011264D01*
X015312Y010837D01*
X015419Y010730D01*
X015633Y010730D01*
X015739Y010837D01*
X015739Y011264D01*
X015957Y011050D02*
X016384Y011050D01*
X016277Y010730D02*
X016277Y011371D01*
X015957Y011050D01*
X015419Y011371D02*
X015312Y011264D01*
X015312Y010837D01*
X015095Y010730D02*
X014668Y010730D01*
X014881Y010730D02*
X014881Y011371D01*
X014668Y011157D01*
X014450Y010730D02*
X014237Y010944D01*
X014344Y010371D02*
X014023Y010371D01*
X014023Y009730D01*
X014023Y009944D02*
X014344Y009944D01*
X014450Y010050D01*
X014450Y010264D01*
X014344Y010371D01*
X014668Y010157D02*
X014881Y010371D01*
X014881Y009730D01*
X014668Y009730D02*
X015095Y009730D01*
X015312Y009837D02*
X015312Y010264D01*
X015419Y010371D01*
X015633Y010371D01*
X015739Y010264D01*
X015312Y009837D01*
X015419Y009730D01*
X015633Y009730D01*
X015739Y009837D01*
X015739Y010264D01*
X015957Y010264D02*
X016064Y010371D01*
X016277Y010371D01*
X016384Y010264D01*
X016384Y010157D01*
X016277Y010050D01*
X016384Y009944D01*
X016384Y009837D01*
X016277Y009730D01*
X016064Y009730D01*
X015957Y009837D01*
X016170Y010050D02*
X016277Y010050D01*
X016277Y009371D02*
X016064Y009371D01*
X015957Y009264D01*
X015739Y009264D02*
X015739Y008837D01*
X015633Y008730D01*
X015419Y008730D01*
X015312Y008837D01*
X015739Y009264D01*
X015633Y009371D01*
X015419Y009371D01*
X015312Y009264D01*
X015312Y008837D01*
X015095Y008730D02*
X014668Y008730D01*
X014881Y008730D02*
X014881Y009371D01*
X014668Y009157D01*
X014450Y009050D02*
X014344Y008944D01*
X014023Y008944D01*
X014237Y008944D02*
X014450Y008730D01*
X014450Y009050D02*
X014450Y009264D01*
X014344Y009371D01*
X014023Y009371D01*
X014023Y008730D01*
X014023Y008371D02*
X014344Y008371D01*
X014450Y008264D01*
X014450Y008050D01*
X014344Y007944D01*
X014023Y007944D01*
X014237Y007944D02*
X014450Y007730D01*
X014668Y007730D02*
X015095Y007730D01*
X014881Y007730D02*
X014881Y008371D01*
X014668Y008157D01*
X015312Y008264D02*
X015312Y007837D01*
X015739Y008264D01*
X015739Y007837D01*
X015633Y007730D01*
X015419Y007730D01*
X015312Y007837D01*
X015419Y007371D02*
X015633Y007371D01*
X015739Y007264D01*
X015312Y006837D01*
X015419Y006730D01*
X015633Y006730D01*
X015739Y006837D01*
X015739Y007264D01*
X015957Y007264D02*
X015957Y006837D01*
X016384Y007264D01*
X016384Y006837D01*
X016277Y006730D01*
X016064Y006730D01*
X015957Y006837D01*
X015957Y007264D02*
X016064Y007371D01*
X016277Y007371D01*
X016384Y007264D01*
X016384Y007730D02*
X015957Y007730D01*
X016170Y007730D02*
X016170Y008371D01*
X015957Y008157D01*
X015739Y008264D02*
X015633Y008371D01*
X015419Y008371D01*
X015312Y008264D01*
X015957Y008730D02*
X016384Y009157D01*
X016384Y009264D01*
X016277Y009371D01*
X016384Y008730D02*
X015957Y008730D01*
X015419Y007371D02*
X015312Y007264D01*
X015312Y006837D01*
X015095Y006730D02*
X014668Y006730D01*
X014881Y006730D02*
X014881Y007371D01*
X014668Y007157D01*
X014450Y007050D02*
X014344Y006944D01*
X014023Y006944D01*
X014237Y006944D02*
X014450Y006730D01*
X014450Y007050D02*
X014450Y007264D01*
X014344Y007371D01*
X014023Y007371D01*
X014023Y006730D01*
X014023Y007730D02*
X014023Y008371D01*
X014450Y009730D02*
X014237Y009944D01*
X022123Y005571D02*
X022550Y005571D01*
X022337Y005571D02*
X022337Y004930D01*
X022768Y004930D02*
X023195Y004930D01*
X022981Y004930D02*
X022981Y005571D01*
X022768Y005357D01*
X024623Y006430D02*
X024623Y006750D01*
X024730Y006857D01*
X025157Y006857D01*
X025263Y006750D01*
X025263Y006430D01*
X024623Y006430D01*
X024730Y007075D02*
X024623Y007181D01*
X024623Y007395D01*
X024730Y007502D01*
X024836Y007502D01*
X025263Y007075D01*
X025263Y007502D01*
X025523Y007377D02*
X025736Y007164D01*
X025630Y006946D02*
X026057Y006519D01*
X026163Y006626D01*
X026163Y006839D01*
X026057Y006946D01*
X025630Y006946D01*
X025523Y006839D01*
X025523Y006626D01*
X025630Y006519D01*
X026057Y006519D01*
X026163Y006302D02*
X026163Y005875D01*
X025736Y006302D01*
X025630Y006302D01*
X025523Y006195D01*
X025523Y005981D01*
X025630Y005875D01*
X025630Y005657D02*
X025843Y005657D01*
X025950Y005550D01*
X025950Y005230D01*
X026163Y005230D02*
X025523Y005230D01*
X025523Y005550D01*
X025630Y005657D01*
X025950Y005444D02*
X026163Y005657D01*
X026523Y005088D02*
X027163Y005088D01*
X027163Y004875D02*
X027163Y005302D01*
X027423Y005084D02*
X027530Y005191D01*
X027957Y004764D01*
X028063Y004870D01*
X028063Y005084D01*
X027957Y005191D01*
X027530Y005191D01*
X027423Y005084D02*
X027423Y004870D01*
X027530Y004764D01*
X027957Y004764D01*
X027957Y004546D02*
X028063Y004439D01*
X028063Y004226D01*
X027957Y004119D01*
X027530Y004546D01*
X027957Y004546D01*
X027957Y004119D02*
X027530Y004119D01*
X027423Y004226D01*
X027423Y004439D01*
X027530Y004546D01*
X027163Y004550D02*
X027163Y004230D01*
X026523Y004230D01*
X026523Y004550D01*
X026630Y004657D01*
X027057Y004657D01*
X027163Y004550D01*
X026736Y004875D02*
X026523Y005088D01*
X027530Y003902D02*
X027423Y003795D01*
X027423Y003581D01*
X027530Y003475D01*
X027530Y003257D02*
X027743Y003257D01*
X027850Y003150D01*
X027850Y002830D01*
X028063Y002830D02*
X027423Y002830D01*
X027423Y003150D01*
X027530Y003257D01*
X027850Y003044D02*
X028063Y003257D01*
X028063Y003475D02*
X027636Y003902D01*
X027530Y003902D01*
X028063Y003902D02*
X028063Y003475D01*
X026163Y007164D02*
X026163Y007591D01*
X026163Y007377D02*
X025523Y007377D01*
X016534Y017930D02*
X016107Y017930D01*
X016320Y017930D02*
X016320Y018571D01*
X016107Y018357D01*
X015676Y018571D02*
X015676Y017930D01*
X015889Y017930D02*
X015462Y017930D01*
X015245Y017930D02*
X014818Y017930D01*
X015031Y017930D02*
X015031Y018571D01*
X014818Y018357D01*
X014600Y018250D02*
X014494Y018144D01*
X014173Y018144D01*
X014387Y018144D02*
X014600Y017930D01*
X014173Y017930D02*
X014173Y018571D01*
X014494Y018571D01*
X014600Y018464D01*
X014600Y018250D01*
X015462Y018357D02*
X015676Y018571D01*
X013206Y018050D02*
X012779Y018050D01*
X013099Y018371D01*
X013099Y017730D01*
X012561Y017730D02*
X012348Y017944D01*
X012455Y017944D02*
X012134Y017944D01*
X012134Y017730D02*
X012134Y018371D01*
X012455Y018371D01*
X012561Y018264D01*
X012561Y018050D01*
X012455Y017944D01*
X009163Y019830D02*
X008523Y019830D01*
X008523Y020150D01*
X008630Y020257D01*
X008843Y020257D01*
X008950Y020150D01*
X008950Y019830D01*
X008950Y020044D02*
X009163Y020257D01*
X009163Y020475D02*
X009163Y020902D01*
X009163Y020688D02*
X008523Y020688D01*
X008736Y020475D01*
X018223Y022830D02*
X018223Y023471D01*
X018544Y023471D01*
X018650Y023364D01*
X018650Y023150D01*
X018544Y023044D01*
X018223Y023044D01*
X018437Y023044D02*
X018650Y022830D01*
X018868Y022830D02*
X019295Y022830D01*
X019081Y022830D02*
X019081Y023471D01*
X018868Y023257D01*
X019512Y023257D02*
X019726Y023471D01*
X019726Y022830D01*
X019939Y022830D02*
X019512Y022830D01*
X020157Y022937D02*
X020264Y022830D01*
X020477Y022830D01*
X020584Y022937D01*
X020584Y023150D01*
X020477Y023257D01*
X020370Y023257D01*
X020157Y023150D01*
X020157Y023471D01*
X020584Y023471D01*
X022023Y024071D02*
X022450Y024071D01*
X022237Y024071D02*
X022237Y023430D01*
X022668Y023537D02*
X022668Y023644D01*
X022775Y023750D01*
X022988Y023750D01*
X023095Y023644D01*
X023095Y023537D01*
X022988Y023430D01*
X022775Y023430D01*
X022668Y023537D01*
X022775Y023750D02*
X022668Y023857D01*
X022668Y023964D01*
X022775Y024071D01*
X022988Y024071D01*
X023095Y023964D01*
X023095Y023857D01*
X022988Y023750D01*
X024723Y025230D02*
X024723Y025550D01*
X024830Y025657D01*
X025257Y025657D01*
X025363Y025550D01*
X025363Y025230D01*
X024723Y025230D01*
X024830Y025875D02*
X024723Y025981D01*
X024723Y026195D01*
X024830Y026302D01*
X024936Y026302D01*
X025043Y026195D01*
X025043Y025981D01*
X024936Y025875D01*
X024830Y025875D01*
X025043Y025981D02*
X025150Y025875D01*
X025257Y025875D01*
X025363Y025981D01*
X025363Y026195D01*
X025257Y026302D01*
X025150Y026302D01*
X025043Y026195D01*
X025623Y026095D02*
X025623Y025881D01*
X025730Y025775D01*
X025730Y025557D02*
X025943Y025557D01*
X026050Y025450D01*
X026050Y025130D01*
X026263Y025130D02*
X025623Y025130D01*
X025623Y025450D01*
X025730Y025557D01*
X026050Y025344D02*
X026263Y025557D01*
X026263Y025775D02*
X025836Y026202D01*
X025730Y026202D01*
X025623Y026095D01*
X025730Y026419D02*
X025623Y026526D01*
X025623Y026739D01*
X025730Y026846D01*
X026157Y026419D01*
X026263Y026526D01*
X026263Y026739D01*
X026157Y026846D01*
X025730Y026846D01*
X025623Y027064D02*
X025623Y027491D01*
X025730Y027491D01*
X026157Y027064D01*
X026263Y027064D01*
X026157Y026419D02*
X025730Y026419D01*
X026263Y026202D02*
X026263Y025775D01*
X027323Y025191D02*
X027430Y024977D01*
X027643Y024764D01*
X027643Y025084D01*
X027750Y025191D01*
X027857Y025191D01*
X027963Y025084D01*
X027963Y024870D01*
X027857Y024764D01*
X027643Y024764D01*
X027430Y024546D02*
X027857Y024119D01*
X027963Y024226D01*
X027963Y024439D01*
X027857Y024546D01*
X027430Y024546D01*
X027323Y024439D01*
X027323Y024226D01*
X027430Y024119D01*
X027857Y024119D01*
X027963Y023902D02*
X027963Y023475D01*
X027536Y023902D01*
X027430Y023902D01*
X027323Y023795D01*
X027323Y023581D01*
X027430Y023475D01*
X027430Y023257D02*
X027643Y023257D01*
X027750Y023150D01*
X027750Y022830D01*
X027963Y022830D02*
X027323Y022830D01*
X027323Y023150D01*
X027430Y023257D01*
X027113Y023300D02*
X027113Y022980D01*
X026473Y022980D01*
X026473Y023300D01*
X026580Y023407D01*
X027007Y023407D01*
X027113Y023300D01*
X027113Y023625D02*
X027007Y023625D01*
X026580Y024052D01*
X026473Y024052D01*
X026473Y023625D01*
X027750Y023044D02*
X027963Y023257D01*
X030184Y024980D02*
X030611Y025621D01*
X030829Y025407D02*
X031042Y025621D01*
X031042Y024980D01*
X030829Y024980D02*
X031256Y024980D01*
X030611Y024980D02*
X030184Y025621D01*
D15*
X023146Y021305D02*
X023146Y021257D01*
X022953Y021063D01*
X022953Y021015D01*
X022755Y021015D02*
X022755Y021305D01*
X022658Y021305D02*
X022852Y021305D01*
X022953Y021305D02*
X023146Y021305D01*
X025738Y019242D02*
X025738Y019049D01*
X025883Y019049D01*
X025835Y019146D01*
X025835Y019194D01*
X025883Y019242D01*
X025980Y019242D01*
X026028Y019194D01*
X026028Y019097D01*
X025980Y019049D01*
X025980Y018948D02*
X026028Y018899D01*
X026028Y018803D01*
X025980Y018754D01*
X025786Y018948D01*
X025980Y018948D01*
X025786Y018948D02*
X025738Y018899D01*
X025738Y018803D01*
X025786Y018754D01*
X025980Y018754D01*
X026028Y018653D02*
X026028Y018460D01*
X025835Y018653D01*
X025786Y018653D01*
X025738Y018605D01*
X025738Y018508D01*
X025786Y018460D01*
X025786Y018358D02*
X025883Y018358D01*
X025932Y018310D01*
X025932Y018165D01*
X026028Y018165D02*
X025738Y018165D01*
X025738Y018310D01*
X025786Y018358D01*
X025932Y018262D02*
X026028Y018358D01*
X025128Y018365D02*
X025128Y018510D01*
X025080Y018558D01*
X024886Y018558D01*
X024838Y018510D01*
X024838Y018365D01*
X025128Y018365D01*
X025080Y018660D02*
X025128Y018708D01*
X025128Y018805D01*
X025080Y018853D01*
X025032Y018853D01*
X024983Y018805D01*
X024983Y018660D01*
X025080Y018660D01*
X024983Y018660D02*
X024886Y018756D01*
X024838Y018853D01*
X023196Y018813D02*
X023196Y018862D01*
X023148Y018910D01*
X023003Y018910D01*
X023003Y018813D01*
X023051Y018765D01*
X023148Y018765D01*
X023196Y018813D01*
X023100Y019007D02*
X023003Y018910D01*
X023100Y019007D02*
X023196Y019055D01*
X022902Y019055D02*
X022708Y019055D01*
X022805Y019055D02*
X022805Y018765D01*
X022805Y016805D02*
X022805Y016515D01*
X023003Y016563D02*
X023051Y016515D01*
X023148Y016515D01*
X023196Y016563D01*
X023196Y016660D01*
X023148Y016708D01*
X023100Y016708D01*
X023003Y016660D01*
X023003Y016805D01*
X023196Y016805D01*
X022902Y016805D02*
X022708Y016805D01*
X022755Y014605D02*
X022755Y014315D01*
X022953Y014460D02*
X023146Y014460D01*
X023098Y014315D02*
X023098Y014605D01*
X022953Y014460D01*
X022852Y014605D02*
X022658Y014605D01*
X024838Y014455D02*
X024983Y014310D01*
X024983Y014503D01*
X025128Y014455D02*
X024838Y014455D01*
X024886Y014208D02*
X024838Y014160D01*
X024838Y014015D01*
X025128Y014015D01*
X025128Y014160D01*
X025080Y014208D01*
X024886Y014208D01*
X025738Y014258D02*
X025786Y014210D01*
X025738Y014258D02*
X025738Y014355D01*
X025786Y014403D01*
X025835Y014403D01*
X026028Y014210D01*
X026028Y014403D01*
X025980Y014504D02*
X025786Y014698D01*
X025980Y014698D01*
X026028Y014649D01*
X026028Y014553D01*
X025980Y014504D01*
X025786Y014504D01*
X025738Y014553D01*
X025738Y014649D01*
X025786Y014698D01*
X025786Y014799D02*
X025738Y014847D01*
X025738Y014944D01*
X025786Y014992D01*
X025835Y014992D01*
X025883Y014944D01*
X025932Y014992D01*
X025980Y014992D01*
X026028Y014944D01*
X026028Y014847D01*
X025980Y014799D01*
X025883Y014896D02*
X025883Y014944D01*
X025883Y014108D02*
X025786Y014108D01*
X025738Y014060D01*
X025738Y013915D01*
X026028Y013915D01*
X025932Y013915D02*
X025932Y014060D01*
X025883Y014108D01*
X025932Y014012D02*
X026028Y014108D01*
X027638Y012594D02*
X027638Y012497D01*
X027686Y012449D01*
X027686Y012348D02*
X027880Y012154D01*
X027928Y012203D01*
X027928Y012299D01*
X027880Y012348D01*
X027686Y012348D01*
X027638Y012299D01*
X027638Y012203D01*
X027686Y012154D01*
X027880Y012154D01*
X027928Y012053D02*
X027928Y011860D01*
X027735Y012053D01*
X027686Y012053D01*
X027638Y012005D01*
X027638Y011908D01*
X027686Y011860D01*
X027686Y011758D02*
X027783Y011758D01*
X027832Y011710D01*
X027832Y011565D01*
X027928Y011565D02*
X027638Y011565D01*
X027638Y011710D01*
X027686Y011758D01*
X027832Y011662D02*
X027928Y011758D01*
X027928Y012449D02*
X027735Y012642D01*
X027686Y012642D01*
X027638Y012594D01*
X027928Y012642D02*
X027928Y012449D01*
X027028Y012055D02*
X027028Y011958D01*
X026980Y011910D01*
X026980Y011808D02*
X026786Y011808D01*
X026738Y011760D01*
X026738Y011615D01*
X027028Y011615D01*
X027028Y011760D01*
X026980Y011808D01*
X026786Y011910D02*
X026738Y011958D01*
X026738Y012055D01*
X026786Y012103D01*
X026835Y012103D01*
X026883Y012055D01*
X026932Y012103D01*
X026980Y012103D01*
X027028Y012055D01*
X026883Y012055D02*
X026883Y012006D01*
X023146Y012113D02*
X023098Y012065D01*
X023001Y012065D01*
X022953Y012113D01*
X023050Y012210D02*
X023098Y012210D01*
X023146Y012162D01*
X023146Y012113D01*
X023098Y012210D02*
X023146Y012258D01*
X023146Y012307D01*
X023098Y012355D01*
X023001Y012355D01*
X022953Y012307D01*
X022852Y012355D02*
X022658Y012355D01*
X022755Y012355D02*
X022755Y012065D01*
X022755Y010155D02*
X022755Y009865D01*
X022953Y009865D02*
X023146Y010058D01*
X023146Y010107D01*
X023098Y010155D01*
X023001Y010155D01*
X022953Y010107D01*
X022852Y010155D02*
X022658Y010155D01*
X022953Y009865D02*
X023146Y009865D01*
X018892Y013865D02*
X018892Y013913D01*
X019086Y014107D01*
X019086Y014155D01*
X018892Y014155D01*
X018791Y014107D02*
X018743Y014155D01*
X018646Y014155D01*
X018598Y014107D01*
X018598Y013913D01*
X018791Y014107D01*
X018791Y013913D01*
X018743Y013865D01*
X018646Y013865D01*
X018598Y013913D01*
X018496Y013865D02*
X018303Y013865D01*
X018400Y013865D02*
X018400Y014155D01*
X018303Y014058D01*
X018202Y014010D02*
X018153Y013962D01*
X018008Y013962D01*
X018008Y013865D02*
X018008Y014155D01*
X018153Y014155D01*
X018202Y014107D01*
X018202Y014010D01*
X018105Y013962D02*
X018202Y013865D01*
X018152Y015165D02*
X018055Y015262D01*
X018103Y015262D02*
X017958Y015262D01*
X017958Y015165D02*
X017958Y015455D01*
X018103Y015455D01*
X018152Y015407D01*
X018152Y015310D01*
X018103Y015262D01*
X018253Y015358D02*
X018350Y015455D01*
X018350Y015165D01*
X018446Y015165D02*
X018253Y015165D01*
X018548Y015213D02*
X018548Y015407D01*
X018596Y015455D01*
X018693Y015455D01*
X018741Y015407D01*
X018548Y015213D01*
X018596Y015165D01*
X018693Y015165D01*
X018741Y015213D01*
X018741Y015407D01*
X018842Y015407D02*
X018842Y015358D01*
X018891Y015310D01*
X018987Y015310D01*
X019036Y015262D01*
X019036Y015213D01*
X018987Y015165D01*
X018891Y015165D01*
X018842Y015213D01*
X018842Y015262D01*
X018891Y015310D01*
X018987Y015310D02*
X019036Y015358D01*
X019036Y015407D01*
X018987Y015455D01*
X018891Y015455D01*
X018842Y015407D01*
X018891Y016215D02*
X018987Y016215D01*
X019036Y016263D01*
X019036Y016457D01*
X018987Y016505D01*
X018891Y016505D01*
X018842Y016457D01*
X018842Y016408D01*
X018891Y016360D01*
X019036Y016360D01*
X018891Y016215D02*
X018842Y016263D01*
X018741Y016263D02*
X018693Y016215D01*
X018596Y016215D01*
X018548Y016263D01*
X018741Y016457D01*
X018741Y016263D01*
X018548Y016263D02*
X018548Y016457D01*
X018596Y016505D01*
X018693Y016505D01*
X018741Y016457D01*
X018446Y016215D02*
X018253Y016215D01*
X018350Y016215D02*
X018350Y016505D01*
X018253Y016408D01*
X018152Y016360D02*
X018103Y016312D01*
X017958Y016312D01*
X017958Y016215D02*
X017958Y016505D01*
X018103Y016505D01*
X018152Y016457D01*
X018152Y016360D01*
X018055Y016312D02*
X018152Y016215D01*
X018152Y017165D02*
X018055Y017262D01*
X018103Y017262D02*
X017958Y017262D01*
X017958Y017165D02*
X017958Y017455D01*
X018103Y017455D01*
X018152Y017407D01*
X018152Y017310D01*
X018103Y017262D01*
X018253Y017358D02*
X018350Y017455D01*
X018350Y017165D01*
X018446Y017165D02*
X018253Y017165D01*
X018548Y017165D02*
X018741Y017165D01*
X018644Y017165D02*
X018644Y017455D01*
X018548Y017358D01*
X018842Y017407D02*
X018842Y017213D01*
X019036Y017407D01*
X019036Y017213D01*
X018987Y017165D01*
X018891Y017165D01*
X018842Y017213D01*
X018842Y017407D02*
X018891Y017455D01*
X018987Y017455D01*
X019036Y017407D01*
X019036Y018165D02*
X018842Y018165D01*
X018939Y018165D02*
X018939Y018455D01*
X018842Y018358D01*
X018741Y018165D02*
X018548Y018165D01*
X018644Y018165D02*
X018644Y018455D01*
X018548Y018358D01*
X018446Y018165D02*
X018253Y018165D01*
X018350Y018165D02*
X018350Y018455D01*
X018253Y018358D01*
X018152Y018310D02*
X018103Y018262D01*
X017958Y018262D01*
X017958Y018165D02*
X017958Y018455D01*
X018103Y018455D01*
X018152Y018407D01*
X018152Y018310D01*
X018055Y018262D02*
X018152Y018165D01*
X018152Y019165D02*
X018055Y019262D01*
X018103Y019262D02*
X017958Y019262D01*
X017958Y019165D02*
X017958Y019455D01*
X018103Y019455D01*
X018152Y019407D01*
X018152Y019310D01*
X018103Y019262D01*
X018253Y019358D02*
X018350Y019455D01*
X018350Y019165D01*
X018446Y019165D02*
X018253Y019165D01*
X018548Y019165D02*
X018741Y019165D01*
X018644Y019165D02*
X018644Y019455D01*
X018548Y019358D01*
X018842Y019407D02*
X018891Y019455D01*
X018987Y019455D01*
X019036Y019407D01*
X019036Y019358D01*
X018842Y019165D01*
X019036Y019165D01*
X018987Y020165D02*
X018891Y020165D01*
X018842Y020213D01*
X018741Y020165D02*
X018548Y020165D01*
X018644Y020165D02*
X018644Y020455D01*
X018548Y020358D01*
X018446Y020165D02*
X018253Y020165D01*
X018350Y020165D02*
X018350Y020455D01*
X018253Y020358D01*
X018152Y020310D02*
X018103Y020262D01*
X017958Y020262D01*
X017958Y020165D02*
X017958Y020455D01*
X018103Y020455D01*
X018152Y020407D01*
X018152Y020310D01*
X018055Y020262D02*
X018152Y020165D01*
X018842Y020407D02*
X018891Y020455D01*
X018987Y020455D01*
X019036Y020407D01*
X019036Y020358D01*
X018987Y020310D01*
X019036Y020262D01*
X019036Y020213D01*
X018987Y020165D01*
X018987Y020310D02*
X018939Y020310D01*
X018987Y021165D02*
X018987Y021455D01*
X018842Y021310D01*
X019036Y021310D01*
X018741Y021165D02*
X018548Y021165D01*
X018644Y021165D02*
X018644Y021455D01*
X018548Y021358D01*
X018446Y021165D02*
X018253Y021165D01*
X018350Y021165D02*
X018350Y021455D01*
X018253Y021358D01*
X018152Y021310D02*
X018103Y021262D01*
X017958Y021262D01*
X017958Y021165D02*
X017958Y021455D01*
X018103Y021455D01*
X018152Y021407D01*
X018152Y021310D01*
X018055Y021262D02*
X018152Y021165D01*
X015322Y021865D02*
X015128Y021865D01*
X015128Y022155D01*
X015322Y022155D01*
X015225Y022010D02*
X015128Y022010D01*
X015027Y021865D02*
X014833Y021865D01*
X014833Y022155D01*
X014732Y022107D02*
X014732Y022058D01*
X014684Y022010D01*
X014539Y022010D01*
X014438Y022010D02*
X014244Y022010D01*
X014244Y022058D02*
X014244Y021865D01*
X014143Y021913D02*
X014095Y021865D01*
X013998Y021865D01*
X013949Y021913D01*
X013998Y022010D02*
X014095Y022010D01*
X014143Y021962D01*
X014143Y021913D01*
X013998Y022010D02*
X013949Y022058D01*
X013949Y022107D01*
X013998Y022155D01*
X014095Y022155D01*
X014143Y022107D01*
X014244Y022058D02*
X014341Y022155D01*
X014438Y022058D01*
X014438Y021865D01*
X014539Y021865D02*
X014539Y022155D01*
X014684Y022155D01*
X014732Y022107D01*
X014684Y022010D02*
X014732Y021962D01*
X014732Y021913D01*
X014684Y021865D01*
X014539Y021865D01*
X013850Y021865D02*
X013753Y021865D01*
X013801Y021865D02*
X013801Y022155D01*
X013753Y022155D02*
X013850Y022155D01*
X013652Y022107D02*
X013652Y021913D01*
X013603Y021865D01*
X013458Y021865D01*
X013458Y022155D01*
X013603Y022155D01*
X013652Y022107D01*
X012425Y022155D02*
X012232Y022155D01*
X012232Y021865D01*
X012425Y021865D01*
X012328Y022010D02*
X012232Y022010D01*
X012130Y021865D02*
X011937Y021865D01*
X011937Y022155D01*
X011836Y022107D02*
X011836Y022058D01*
X011787Y022010D01*
X011642Y022010D01*
X011541Y022010D02*
X011348Y022010D01*
X011348Y022058D02*
X011348Y021865D01*
X011246Y021865D02*
X011246Y022155D01*
X011348Y022058D02*
X011444Y022155D01*
X011541Y022058D01*
X011541Y021865D01*
X011642Y021865D02*
X011787Y021865D01*
X011836Y021913D01*
X011836Y021962D01*
X011787Y022010D01*
X011836Y022107D02*
X011787Y022155D01*
X011642Y022155D01*
X011642Y021865D01*
X011246Y021865D02*
X011053Y022155D01*
X011053Y021865D01*
X010952Y021865D02*
X010758Y021865D01*
X010758Y022155D01*
X010952Y022155D01*
X010855Y022010D02*
X010758Y022010D01*
X026688Y016553D02*
X026688Y016360D01*
X026833Y016360D01*
X026785Y016456D01*
X026785Y016505D01*
X026833Y016553D01*
X026930Y016553D01*
X026978Y016505D01*
X026978Y016408D01*
X026930Y016360D01*
X026930Y016258D02*
X026736Y016258D01*
X026688Y016210D01*
X026688Y016065D01*
X026978Y016065D01*
X026978Y016210D01*
X026930Y016258D01*
X027538Y016305D02*
X027538Y016208D01*
X027586Y016160D01*
X027586Y016058D02*
X027683Y016058D01*
X027732Y016010D01*
X027732Y015865D01*
X027828Y015865D02*
X027538Y015865D01*
X027538Y016010D01*
X027586Y016058D01*
X027732Y015962D02*
X027828Y016058D01*
X027828Y016160D02*
X027635Y016353D01*
X027586Y016353D01*
X027538Y016305D01*
X027586Y016454D02*
X027538Y016503D01*
X027538Y016599D01*
X027586Y016648D01*
X027780Y016454D01*
X027828Y016503D01*
X027828Y016599D01*
X027780Y016648D01*
X027586Y016648D01*
X027683Y016749D02*
X027683Y016942D01*
X027828Y016894D02*
X027538Y016894D01*
X027683Y016749D01*
X027780Y016454D02*
X027586Y016454D01*
X027828Y016353D02*
X027828Y016160D01*
D16*
X008542Y008870D02*
X008447Y008965D01*
X008257Y008965D01*
X008161Y008870D01*
X008161Y008490D01*
X008257Y008395D01*
X008447Y008395D01*
X008542Y008490D01*
X008542Y008680D01*
X008352Y008680D01*
X007934Y008490D02*
X007934Y008870D01*
X007839Y008965D01*
X007649Y008965D01*
X007554Y008870D01*
X007554Y008490D01*
X007649Y008395D01*
X007839Y008395D01*
X007934Y008490D01*
X007326Y008395D02*
X007136Y008585D01*
X007231Y008585D02*
X006946Y008585D01*
X006946Y008395D02*
X006946Y008965D01*
X007231Y008965D01*
X007326Y008870D01*
X007326Y008680D01*
X007231Y008585D01*
X006719Y008680D02*
X006719Y008870D01*
X006624Y008965D01*
X006338Y008965D01*
X006338Y008395D01*
X006338Y008585D02*
X006624Y008585D01*
X006719Y008680D01*
D17*
X024593Y009000D02*
X025393Y009000D01*
X026493Y011200D02*
X027293Y011200D01*
X025393Y013600D02*
X024593Y013600D01*
X026393Y015600D02*
X027193Y015600D01*
X025393Y017900D02*
X024593Y017900D01*
X026393Y020100D02*
X027193Y020100D01*
X025393Y022400D02*
X024593Y022400D01*
X026393Y006700D02*
X027193Y006700D01*
D18*
X023093Y007400D02*
X023093Y005800D01*
X022193Y005800D01*
X022193Y007400D01*
X022593Y007400D01*
X022593Y007300D01*
X022595Y007283D01*
X022599Y007266D01*
X022606Y007250D01*
X022616Y007236D01*
X022629Y007223D01*
X022643Y007213D01*
X022659Y007206D01*
X022676Y007202D01*
X022693Y007200D01*
X022710Y007202D01*
X022727Y007206D01*
X022743Y007213D01*
X022757Y007223D01*
X022770Y007236D01*
X022780Y007250D01*
X022787Y007266D01*
X022791Y007283D01*
X022793Y007300D01*
X022793Y007400D01*
X023093Y007400D01*
X023093Y008100D02*
X022193Y008100D01*
X022193Y009700D01*
X022593Y009700D01*
X022593Y009600D01*
X022595Y009583D01*
X022599Y009566D01*
X022606Y009550D01*
X022616Y009536D01*
X022629Y009523D01*
X022643Y009513D01*
X022659Y009506D01*
X022676Y009502D01*
X022693Y009500D01*
X022710Y009502D01*
X022727Y009506D01*
X022743Y009513D01*
X022757Y009523D01*
X022770Y009536D01*
X022780Y009550D01*
X022787Y009566D01*
X022791Y009583D01*
X022793Y009600D01*
X022793Y009700D01*
X023093Y009700D01*
X023093Y008100D01*
X023093Y010300D02*
X022193Y010300D01*
X022193Y011900D01*
X022593Y011900D01*
X022593Y011800D01*
X022595Y011783D01*
X022599Y011766D01*
X022606Y011750D01*
X022616Y011736D01*
X022629Y011723D01*
X022643Y011713D01*
X022659Y011706D01*
X022676Y011702D01*
X022693Y011700D01*
X022710Y011702D01*
X022727Y011706D01*
X022743Y011713D01*
X022757Y011723D01*
X022770Y011736D01*
X022780Y011750D01*
X022787Y011766D01*
X022791Y011783D01*
X022793Y011800D01*
X022793Y011900D01*
X023093Y011900D01*
X023093Y010300D01*
X023093Y012600D02*
X022193Y012600D01*
X022193Y014200D01*
X022593Y014200D01*
X022593Y014100D01*
X022595Y014083D01*
X022599Y014066D01*
X022606Y014050D01*
X022616Y014036D01*
X022629Y014023D01*
X022643Y014013D01*
X022659Y014006D01*
X022676Y014002D01*
X022693Y014000D01*
X022710Y014002D01*
X022727Y014006D01*
X022743Y014013D01*
X022757Y014023D01*
X022770Y014036D01*
X022780Y014050D01*
X022787Y014066D01*
X022791Y014083D01*
X022793Y014100D01*
X022793Y014200D01*
X023093Y014200D01*
X023093Y012600D01*
X023093Y014700D02*
X022193Y014700D01*
X022193Y016300D01*
X022593Y016300D01*
X022593Y016200D01*
X022595Y016183D01*
X022599Y016166D01*
X022606Y016150D01*
X022616Y016136D01*
X022629Y016123D01*
X022643Y016113D01*
X022659Y016106D01*
X022676Y016102D01*
X022693Y016100D01*
X022710Y016102D01*
X022727Y016106D01*
X022743Y016113D01*
X022757Y016123D01*
X022770Y016136D01*
X022780Y016150D01*
X022787Y016166D01*
X022791Y016183D01*
X022793Y016200D01*
X022793Y016300D01*
X023093Y016300D01*
X023093Y014700D01*
X023093Y017000D02*
X022193Y017000D01*
X022193Y018600D01*
X022593Y018600D01*
X022593Y018500D01*
X022595Y018483D01*
X022599Y018466D01*
X022606Y018450D01*
X022616Y018436D01*
X022629Y018423D01*
X022643Y018413D01*
X022659Y018406D01*
X022676Y018402D01*
X022693Y018400D01*
X022710Y018402D01*
X022727Y018406D01*
X022743Y018413D01*
X022757Y018423D01*
X022770Y018436D01*
X022780Y018450D01*
X022787Y018466D01*
X022791Y018483D01*
X022793Y018500D01*
X022793Y018600D01*
X023093Y018600D01*
X023093Y017000D01*
X023093Y019200D02*
X022193Y019200D01*
X022193Y020800D01*
X022593Y020800D01*
X022593Y020700D01*
X022595Y020683D01*
X022599Y020666D01*
X022606Y020650D01*
X022616Y020636D01*
X022629Y020623D01*
X022643Y020613D01*
X022659Y020606D01*
X022676Y020602D01*
X022693Y020600D01*
X022710Y020602D01*
X022727Y020606D01*
X022743Y020613D01*
X022757Y020623D01*
X022770Y020636D01*
X022780Y020650D01*
X022787Y020666D01*
X022791Y020683D01*
X022793Y020700D01*
X022793Y020800D01*
X023093Y020800D01*
X023093Y019200D01*
X023093Y021500D02*
X022193Y021500D01*
X022193Y023100D01*
X022593Y023100D01*
X022593Y023000D01*
X022595Y022983D01*
X022599Y022966D01*
X022606Y022950D01*
X022616Y022936D01*
X022629Y022923D01*
X022643Y022913D01*
X022659Y022906D01*
X022676Y022902D01*
X022693Y022900D01*
X022710Y022902D01*
X022727Y022906D01*
X022743Y022913D01*
X022757Y022923D01*
X022770Y022936D01*
X022780Y022950D01*
X022787Y022966D01*
X022791Y022983D01*
X022793Y023000D01*
X022793Y023100D01*
X023093Y023100D01*
X023093Y021500D01*
M02*
