G75*
G70*
%OFA0B0*%
%FSLAX24Y24*%
%IPPOS*%
%LPD*%
%AMOC8*
5,1,8,0,0,1.08239X$1,22.5*
%
%ADD10C,0.0000*%
%ADD11C,0.0600*%
%ADD12C,0.0520*%
%ADD13C,0.0740*%
%ADD14OC8,0.0520*%
%ADD15R,0.0866X0.0236*%
%ADD16OC8,0.0600*%
%ADD17C,0.2000*%
%ADD18C,0.0500*%
%ADD19C,0.0320*%
%ADD20C,0.0400*%
%ADD21C,0.0240*%
%ADD22R,0.0396X0.0396*%
D10*
X000143Y002250D02*
X000543Y001850D01*
X016993Y001850D01*
X019793Y000100D01*
X025593Y000100D01*
X033793Y000500D01*
X033793Y028900D01*
X025593Y029300D01*
X019793Y029300D01*
X016993Y027550D01*
X000543Y027550D01*
X000143Y027150D01*
X000143Y002250D01*
X000518Y002900D02*
X000520Y002950D01*
X000526Y002999D01*
X000536Y003048D01*
X000549Y003095D01*
X000567Y003142D01*
X000588Y003187D01*
X000612Y003230D01*
X000640Y003271D01*
X000671Y003310D01*
X000705Y003346D01*
X000742Y003380D01*
X000782Y003410D01*
X000823Y003437D01*
X000867Y003461D01*
X000912Y003481D01*
X000959Y003497D01*
X001007Y003510D01*
X001056Y003519D01*
X001106Y003524D01*
X001155Y003525D01*
X001205Y003522D01*
X001254Y003515D01*
X001303Y003504D01*
X001350Y003490D01*
X001396Y003471D01*
X001441Y003449D01*
X001484Y003424D01*
X001524Y003395D01*
X001562Y003363D01*
X001598Y003329D01*
X001631Y003291D01*
X001660Y003251D01*
X001686Y003209D01*
X001709Y003165D01*
X001728Y003119D01*
X001744Y003072D01*
X001756Y003023D01*
X001764Y002974D01*
X001768Y002925D01*
X001768Y002875D01*
X001764Y002826D01*
X001756Y002777D01*
X001744Y002728D01*
X001728Y002681D01*
X001709Y002635D01*
X001686Y002591D01*
X001660Y002549D01*
X001631Y002509D01*
X001598Y002471D01*
X001562Y002437D01*
X001524Y002405D01*
X001484Y002376D01*
X001441Y002351D01*
X001396Y002329D01*
X001350Y002310D01*
X001303Y002296D01*
X001254Y002285D01*
X001205Y002278D01*
X001155Y002275D01*
X001106Y002276D01*
X001056Y002281D01*
X001007Y002290D01*
X000959Y002303D01*
X000912Y002319D01*
X000867Y002339D01*
X000823Y002363D01*
X000782Y002390D01*
X000742Y002420D01*
X000705Y002454D01*
X000671Y002490D01*
X000640Y002529D01*
X000612Y002570D01*
X000588Y002613D01*
X000567Y002658D01*
X000549Y002705D01*
X000536Y002752D01*
X000526Y002801D01*
X000520Y002850D01*
X000518Y002900D01*
X018318Y001950D02*
X018320Y002000D01*
X018326Y002049D01*
X018336Y002098D01*
X018349Y002145D01*
X018367Y002192D01*
X018388Y002237D01*
X018412Y002280D01*
X018440Y002321D01*
X018471Y002360D01*
X018505Y002396D01*
X018542Y002430D01*
X018582Y002460D01*
X018623Y002487D01*
X018667Y002511D01*
X018712Y002531D01*
X018759Y002547D01*
X018807Y002560D01*
X018856Y002569D01*
X018906Y002574D01*
X018955Y002575D01*
X019005Y002572D01*
X019054Y002565D01*
X019103Y002554D01*
X019150Y002540D01*
X019196Y002521D01*
X019241Y002499D01*
X019284Y002474D01*
X019324Y002445D01*
X019362Y002413D01*
X019398Y002379D01*
X019431Y002341D01*
X019460Y002301D01*
X019486Y002259D01*
X019509Y002215D01*
X019528Y002169D01*
X019544Y002122D01*
X019556Y002073D01*
X019564Y002024D01*
X019568Y001975D01*
X019568Y001925D01*
X019564Y001876D01*
X019556Y001827D01*
X019544Y001778D01*
X019528Y001731D01*
X019509Y001685D01*
X019486Y001641D01*
X019460Y001599D01*
X019431Y001559D01*
X019398Y001521D01*
X019362Y001487D01*
X019324Y001455D01*
X019284Y001426D01*
X019241Y001401D01*
X019196Y001379D01*
X019150Y001360D01*
X019103Y001346D01*
X019054Y001335D01*
X019005Y001328D01*
X018955Y001325D01*
X018906Y001326D01*
X018856Y001331D01*
X018807Y001340D01*
X018759Y001353D01*
X018712Y001369D01*
X018667Y001389D01*
X018623Y001413D01*
X018582Y001440D01*
X018542Y001470D01*
X018505Y001504D01*
X018471Y001540D01*
X018440Y001579D01*
X018412Y001620D01*
X018388Y001663D01*
X018367Y001708D01*
X018349Y001755D01*
X018336Y001802D01*
X018326Y001851D01*
X018320Y001900D01*
X018318Y001950D01*
X000518Y026500D02*
X000520Y026550D01*
X000526Y026599D01*
X000536Y026648D01*
X000549Y026695D01*
X000567Y026742D01*
X000588Y026787D01*
X000612Y026830D01*
X000640Y026871D01*
X000671Y026910D01*
X000705Y026946D01*
X000742Y026980D01*
X000782Y027010D01*
X000823Y027037D01*
X000867Y027061D01*
X000912Y027081D01*
X000959Y027097D01*
X001007Y027110D01*
X001056Y027119D01*
X001106Y027124D01*
X001155Y027125D01*
X001205Y027122D01*
X001254Y027115D01*
X001303Y027104D01*
X001350Y027090D01*
X001396Y027071D01*
X001441Y027049D01*
X001484Y027024D01*
X001524Y026995D01*
X001562Y026963D01*
X001598Y026929D01*
X001631Y026891D01*
X001660Y026851D01*
X001686Y026809D01*
X001709Y026765D01*
X001728Y026719D01*
X001744Y026672D01*
X001756Y026623D01*
X001764Y026574D01*
X001768Y026525D01*
X001768Y026475D01*
X001764Y026426D01*
X001756Y026377D01*
X001744Y026328D01*
X001728Y026281D01*
X001709Y026235D01*
X001686Y026191D01*
X001660Y026149D01*
X001631Y026109D01*
X001598Y026071D01*
X001562Y026037D01*
X001524Y026005D01*
X001484Y025976D01*
X001441Y025951D01*
X001396Y025929D01*
X001350Y025910D01*
X001303Y025896D01*
X001254Y025885D01*
X001205Y025878D01*
X001155Y025875D01*
X001106Y025876D01*
X001056Y025881D01*
X001007Y025890D01*
X000959Y025903D01*
X000912Y025919D01*
X000867Y025939D01*
X000823Y025963D01*
X000782Y025990D01*
X000742Y026020D01*
X000705Y026054D01*
X000671Y026090D01*
X000640Y026129D01*
X000612Y026170D01*
X000588Y026213D01*
X000567Y026258D01*
X000549Y026305D01*
X000536Y026352D01*
X000526Y026401D01*
X000520Y026450D01*
X000518Y026500D01*
X018318Y027450D02*
X018320Y027500D01*
X018326Y027549D01*
X018336Y027598D01*
X018349Y027645D01*
X018367Y027692D01*
X018388Y027737D01*
X018412Y027780D01*
X018440Y027821D01*
X018471Y027860D01*
X018505Y027896D01*
X018542Y027930D01*
X018582Y027960D01*
X018623Y027987D01*
X018667Y028011D01*
X018712Y028031D01*
X018759Y028047D01*
X018807Y028060D01*
X018856Y028069D01*
X018906Y028074D01*
X018955Y028075D01*
X019005Y028072D01*
X019054Y028065D01*
X019103Y028054D01*
X019150Y028040D01*
X019196Y028021D01*
X019241Y027999D01*
X019284Y027974D01*
X019324Y027945D01*
X019362Y027913D01*
X019398Y027879D01*
X019431Y027841D01*
X019460Y027801D01*
X019486Y027759D01*
X019509Y027715D01*
X019528Y027669D01*
X019544Y027622D01*
X019556Y027573D01*
X019564Y027524D01*
X019568Y027475D01*
X019568Y027425D01*
X019564Y027376D01*
X019556Y027327D01*
X019544Y027278D01*
X019528Y027231D01*
X019509Y027185D01*
X019486Y027141D01*
X019460Y027099D01*
X019431Y027059D01*
X019398Y027021D01*
X019362Y026987D01*
X019324Y026955D01*
X019284Y026926D01*
X019241Y026901D01*
X019196Y026879D01*
X019150Y026860D01*
X019103Y026846D01*
X019054Y026835D01*
X019005Y026828D01*
X018955Y026825D01*
X018906Y026826D01*
X018856Y026831D01*
X018807Y026840D01*
X018759Y026853D01*
X018712Y026869D01*
X018667Y026889D01*
X018623Y026913D01*
X018582Y026940D01*
X018542Y026970D01*
X018505Y027004D01*
X018471Y027040D01*
X018440Y027079D01*
X018412Y027120D01*
X018388Y027163D01*
X018367Y027208D01*
X018349Y027255D01*
X018336Y027302D01*
X018326Y027351D01*
X018320Y027400D01*
X018318Y027450D01*
D11*
X017393Y024500D02*
X017393Y023900D01*
X016393Y023900D02*
X016393Y024500D01*
X015393Y024500D02*
X015393Y023900D01*
X014393Y023900D02*
X014393Y024500D01*
X013393Y024500D02*
X013393Y023900D01*
X012393Y023900D02*
X012393Y024500D01*
X011393Y024500D02*
X011393Y023900D01*
X010393Y023900D02*
X010393Y024500D01*
X008793Y024500D02*
X008793Y023900D01*
X007793Y023900D02*
X007793Y024500D01*
X006793Y024500D02*
X006793Y023900D01*
X005793Y023900D02*
X005793Y024500D01*
X004793Y024500D02*
X004793Y023900D01*
X003793Y023900D02*
X003793Y024500D01*
X002793Y024500D02*
X002793Y023900D01*
X001793Y023900D02*
X001793Y024500D01*
X005393Y005500D02*
X005393Y004900D01*
X006393Y004900D02*
X006393Y005500D01*
X007393Y005500D02*
X007393Y004900D01*
X008393Y004900D02*
X008393Y005500D01*
X009393Y005500D02*
X009393Y004900D01*
X010393Y004900D02*
X010393Y005500D01*
X012393Y005500D02*
X012393Y004900D01*
X013393Y004900D02*
X013393Y005500D01*
X014393Y005500D02*
X014393Y004900D01*
X015393Y004900D02*
X015393Y005500D01*
X016393Y005500D02*
X016393Y004900D01*
X017393Y004900D02*
X017393Y005500D01*
D12*
X024993Y007890D02*
X024993Y008410D01*
X026793Y008540D02*
X026793Y009060D01*
X026843Y010090D02*
X026843Y010610D01*
X024993Y010890D02*
X024993Y011410D01*
X024993Y012390D02*
X024993Y012910D01*
X026843Y013090D02*
X026843Y013610D01*
X026843Y014490D02*
X026843Y015010D01*
X024993Y015390D02*
X024993Y015910D01*
X024993Y016790D02*
X024993Y017310D01*
X026843Y017490D02*
X026843Y018010D01*
X026843Y018990D02*
X026843Y019510D01*
X024993Y019790D02*
X024993Y020310D01*
X024993Y021290D02*
X024993Y021810D01*
X026843Y021990D02*
X026843Y022510D01*
X024993Y024290D02*
X024993Y024810D01*
X015093Y017410D02*
X015093Y016890D01*
X014093Y016890D02*
X014093Y017410D01*
X013093Y017410D02*
X013093Y016890D01*
X012093Y016890D02*
X012093Y017410D01*
X011093Y017410D02*
X011093Y016890D01*
X010093Y016890D02*
X010093Y017410D01*
X009093Y017410D02*
X009093Y016890D01*
X008093Y016890D02*
X008093Y017410D01*
X007093Y017410D02*
X007093Y016890D01*
X006093Y016890D02*
X006093Y017410D01*
X005093Y017410D02*
X005093Y016890D01*
X004093Y016890D02*
X004093Y017410D01*
X003093Y017410D02*
X003093Y016890D01*
X002093Y016890D02*
X002093Y017410D01*
X002093Y014410D02*
X002093Y013890D01*
X003093Y013890D02*
X003093Y014410D01*
X004093Y014410D02*
X004093Y013890D01*
X005093Y013890D02*
X005093Y014410D01*
X006093Y014410D02*
X006093Y013890D01*
X007093Y013890D02*
X007093Y014410D01*
X008093Y014410D02*
X008093Y013890D01*
X009093Y013890D02*
X009093Y014410D01*
X010093Y014410D02*
X010093Y013890D01*
X011093Y013890D02*
X011093Y014410D01*
X012093Y014410D02*
X012093Y013890D01*
X013093Y013890D02*
X013093Y014410D01*
X014093Y014410D02*
X014093Y013890D01*
X015093Y013890D02*
X015093Y014410D01*
X026793Y006060D02*
X026793Y005540D01*
D13*
X027693Y005800D03*
X025893Y008100D03*
X027693Y008800D03*
X027793Y010300D03*
X025893Y011100D03*
X025893Y012700D03*
X027793Y013300D03*
X027793Y014800D03*
X025893Y015700D03*
X025893Y017000D03*
X027793Y017800D03*
X027693Y019200D03*
X025893Y020000D03*
X025893Y021500D03*
X027693Y022200D03*
X025893Y024500D03*
X019993Y022300D03*
X019993Y021300D03*
X019993Y020300D03*
X019993Y019300D03*
X019993Y018300D03*
X019993Y017300D03*
X019993Y016300D03*
X019993Y015300D03*
X019993Y014000D03*
X019993Y013000D03*
X019993Y012000D03*
X019993Y011000D03*
X019993Y010000D03*
X019993Y009000D03*
X019993Y008000D03*
X019993Y007000D03*
X016993Y007000D03*
X016993Y008000D03*
X016993Y009000D03*
X016993Y010000D03*
X016993Y011000D03*
X016993Y012000D03*
X016993Y013000D03*
X016993Y014000D03*
X016993Y015300D03*
X016993Y016300D03*
X016993Y017300D03*
X016993Y018300D03*
X016993Y019300D03*
X016993Y020300D03*
X016993Y021300D03*
X016993Y022300D03*
X014393Y021000D03*
X014393Y020000D03*
X013693Y018800D03*
X011593Y020000D03*
X011593Y021000D03*
X009693Y021800D03*
X009693Y018800D03*
X010693Y018800D03*
X010193Y012250D03*
X011193Y012250D03*
X012193Y012250D03*
X008093Y009600D03*
X007093Y009700D03*
X006093Y009600D03*
X005093Y009700D03*
X004093Y009600D03*
X003093Y009700D03*
X003823Y006940D03*
X003823Y005160D03*
X001263Y005160D03*
X001263Y006940D03*
D14*
X002893Y008200D03*
X003893Y008200D03*
D15*
X021620Y008150D03*
X021620Y008650D03*
X021620Y009150D03*
X021620Y009650D03*
X021620Y010400D03*
X021620Y010900D03*
X021620Y011400D03*
X021620Y011900D03*
X021620Y012650D03*
X021620Y013150D03*
X021620Y013650D03*
X021620Y014150D03*
X021620Y014800D03*
X021620Y015300D03*
X021620Y015800D03*
X021620Y016300D03*
X021620Y017050D03*
X021620Y017550D03*
X021620Y018050D03*
X021620Y018550D03*
X021620Y019300D03*
X021620Y019800D03*
X021620Y020300D03*
X021620Y020800D03*
X021620Y021550D03*
X021620Y022050D03*
X021620Y022550D03*
X021620Y023050D03*
X023667Y023050D03*
X023667Y022550D03*
X023667Y022050D03*
X023667Y021550D03*
X023667Y020800D03*
X023667Y020300D03*
X023667Y019800D03*
X023667Y019300D03*
X023667Y018550D03*
X023667Y018050D03*
X023667Y017550D03*
X023667Y017050D03*
X023667Y016300D03*
X023667Y015800D03*
X023667Y015300D03*
X023667Y014800D03*
X023667Y014150D03*
X023667Y013650D03*
X023667Y013150D03*
X023667Y012650D03*
X023667Y011900D03*
X023667Y011400D03*
X023667Y010900D03*
X023667Y010400D03*
X023667Y009650D03*
X023667Y009150D03*
X023667Y008650D03*
X023667Y008150D03*
X023667Y007400D03*
X023667Y006900D03*
X023667Y006400D03*
X023667Y005900D03*
X021620Y005900D03*
X021620Y006400D03*
X021620Y006900D03*
X021620Y007400D03*
D16*
X030133Y008320D03*
X031253Y007780D03*
X031253Y008870D03*
X031253Y009950D03*
X030133Y009410D03*
X030133Y010500D03*
X031253Y011040D03*
X030133Y011580D03*
X031253Y012130D03*
X031253Y013210D03*
X030133Y012670D03*
X030133Y013760D03*
X031253Y014300D03*
X030133Y014840D03*
X031253Y015390D03*
X030133Y015930D03*
X030133Y017020D03*
X031253Y017560D03*
X031253Y016470D03*
X030133Y018100D03*
X031253Y018650D03*
X030133Y019190D03*
X030133Y020280D03*
X031253Y020820D03*
X031253Y019730D03*
D17*
X030693Y023560D03*
X030693Y005040D03*
D18*
X013564Y021000D02*
X013524Y020998D01*
X013484Y020992D01*
X013444Y020982D01*
X013406Y020969D01*
X013370Y020951D01*
X013335Y020931D01*
X013303Y020906D01*
X013273Y020879D01*
X012510Y020117D01*
X012228Y020000D02*
X011593Y020000D01*
X012228Y020000D02*
X012267Y020002D01*
X012306Y020008D01*
X012344Y020017D01*
X012381Y020030D01*
X012417Y020047D01*
X012450Y020067D01*
X012482Y020091D01*
X012511Y020117D01*
X013564Y021000D02*
X014393Y021000D01*
X008093Y016437D02*
X008095Y016381D01*
X008100Y016324D01*
X008108Y016269D01*
X008120Y016213D01*
X008135Y016159D01*
X008154Y016106D01*
X008175Y016054D01*
X008200Y016003D01*
X008228Y015954D01*
X008258Y015906D01*
X008292Y015861D01*
X008328Y015818D01*
X008367Y015777D01*
X008367Y015776D02*
X008759Y015384D01*
X009093Y014577D02*
X009093Y014150D01*
X009093Y014577D02*
X009091Y014641D01*
X009086Y014705D01*
X009077Y014768D01*
X009064Y014831D01*
X009048Y014893D01*
X009029Y014954D01*
X009006Y015014D01*
X008980Y015072D01*
X008951Y015129D01*
X008918Y015184D01*
X008883Y015237D01*
X008844Y015288D01*
X008803Y015337D01*
X008759Y015384D01*
X008093Y016437D02*
X008093Y017150D01*
X008093Y009700D02*
X007093Y009700D01*
X008093Y009700D02*
X008093Y009600D01*
X008393Y009300D01*
X008393Y005200D01*
X009393Y005200D01*
X007393Y005200D02*
X007393Y006281D01*
X007026Y007167D02*
X006796Y007397D01*
X007026Y007167D02*
X007071Y007119D01*
X007114Y007070D01*
X007154Y007017D01*
X007191Y006963D01*
X007225Y006908D01*
X007256Y006850D01*
X007285Y006791D01*
X007310Y006730D01*
X007332Y006668D01*
X007350Y006605D01*
X007366Y006542D01*
X007378Y006477D01*
X007386Y006412D01*
X007391Y006347D01*
X007393Y006281D01*
X006796Y007397D02*
X006719Y007477D01*
X006647Y007561D01*
X006578Y007648D01*
X006513Y007738D01*
X006452Y007831D01*
X006396Y007926D01*
X006345Y008024D01*
X006297Y008125D01*
X006255Y008227D01*
X006217Y008331D01*
X006185Y008437D01*
X006157Y008545D01*
X006134Y008653D01*
X006116Y008762D01*
X006103Y008873D01*
X006096Y008983D01*
X006093Y009094D01*
X006093Y009600D01*
D19*
X003893Y007010D02*
X003823Y006940D01*
X001263Y006940D01*
X001263Y012651D01*
X001736Y013793D02*
X002093Y014150D01*
X003093Y014600D02*
X001422Y016271D01*
X000793Y017789D02*
X000793Y024300D01*
X000795Y024360D01*
X000800Y024421D01*
X000809Y024480D01*
X000822Y024539D01*
X000838Y024598D01*
X000858Y024655D01*
X000881Y024710D01*
X000908Y024765D01*
X000937Y024817D01*
X000970Y024868D01*
X001006Y024917D01*
X001044Y024963D01*
X001086Y025007D01*
X001130Y025049D01*
X001176Y025087D01*
X001225Y025123D01*
X001276Y025156D01*
X001328Y025185D01*
X001383Y025212D01*
X001438Y025235D01*
X001495Y025255D01*
X001554Y025271D01*
X001613Y025284D01*
X001672Y025293D01*
X001733Y025298D01*
X001793Y025300D01*
X015438Y025300D01*
X015498Y025298D01*
X015558Y025292D01*
X015617Y025283D01*
X015675Y025270D01*
X015733Y025253D01*
X015790Y025233D01*
X015845Y025209D01*
X015898Y025182D01*
X015950Y025151D01*
X015999Y025118D01*
X016047Y025081D01*
X016092Y025041D01*
X016134Y024999D01*
X016174Y024954D01*
X016211Y024906D01*
X016244Y024857D01*
X016275Y024805D01*
X016302Y024752D01*
X016326Y024697D01*
X016346Y024640D01*
X016363Y024582D01*
X016376Y024524D01*
X016385Y024465D01*
X016391Y024405D01*
X016393Y024345D01*
X016393Y024200D01*
X014393Y020000D02*
X014391Y019932D01*
X014385Y019865D01*
X014376Y019798D01*
X014363Y019731D01*
X014346Y019666D01*
X014325Y019601D01*
X014301Y019538D01*
X014273Y019476D01*
X014242Y019416D01*
X014208Y019358D01*
X014170Y019302D01*
X014130Y019247D01*
X014086Y019196D01*
X014039Y019147D01*
X014040Y019146D02*
X013693Y018800D01*
X011593Y021000D02*
X011224Y021369D01*
X010184Y021800D02*
X009693Y021800D01*
X010184Y021800D02*
X010256Y021798D01*
X010328Y021793D01*
X010400Y021784D01*
X010471Y021772D01*
X010541Y021756D01*
X010611Y021737D01*
X010680Y021714D01*
X010747Y021688D01*
X010813Y021659D01*
X010877Y021626D01*
X010940Y021591D01*
X011001Y021552D01*
X011060Y021511D01*
X011117Y021466D01*
X011172Y021419D01*
X011224Y021369D01*
X000793Y017789D02*
X000795Y017690D01*
X000802Y017591D01*
X000814Y017492D01*
X000830Y017394D01*
X000850Y017297D01*
X000875Y017201D01*
X000904Y017107D01*
X000938Y017013D01*
X000976Y016922D01*
X001018Y016832D01*
X001064Y016744D01*
X001115Y016659D01*
X001169Y016576D01*
X001227Y016495D01*
X001288Y016417D01*
X001353Y016343D01*
X001422Y016271D01*
X001736Y013793D02*
X001681Y013736D01*
X001630Y013676D01*
X001581Y013613D01*
X001535Y013548D01*
X001493Y013481D01*
X001454Y013412D01*
X001418Y013342D01*
X001386Y013269D01*
X001357Y013195D01*
X001333Y013120D01*
X001311Y013043D01*
X001294Y012966D01*
X001280Y012888D01*
X001271Y012809D01*
X001265Y012730D01*
X001263Y012651D01*
X005393Y005370D02*
X005393Y005200D01*
X004594Y004389D02*
X004642Y004345D01*
X004691Y004303D01*
X004743Y004264D01*
X004797Y004228D01*
X004853Y004195D01*
X004911Y004165D01*
X004970Y004138D01*
X005031Y004115D01*
X005093Y004095D01*
X005156Y004079D01*
X005220Y004066D01*
X005284Y004057D01*
X005349Y004052D01*
X005414Y004050D01*
X007028Y004050D01*
X007993Y004450D02*
X008393Y004850D01*
X008393Y005200D01*
X007993Y004450D02*
X007941Y004401D01*
X007887Y004354D01*
X007830Y004311D01*
X007771Y004270D01*
X007711Y004233D01*
X007648Y004199D01*
X007583Y004168D01*
X007517Y004141D01*
X007450Y004117D01*
X007381Y004097D01*
X007312Y004080D01*
X007242Y004067D01*
X007171Y004057D01*
X007099Y004052D01*
X007028Y004050D01*
X004594Y004390D02*
X003823Y005160D01*
X001263Y005160D01*
D20*
X003823Y006940D02*
X005393Y005370D01*
X003893Y007010D02*
X003893Y008200D01*
X002893Y008200D02*
X002893Y009500D01*
X003093Y009700D01*
X004093Y009600D02*
X004093Y010931D01*
X003762Y011731D02*
X003504Y011989D01*
X003762Y011731D02*
X003805Y011685D01*
X003846Y011636D01*
X003884Y011585D01*
X003920Y011533D01*
X003952Y011478D01*
X003981Y011422D01*
X004007Y011364D01*
X004030Y011305D01*
X004049Y011244D01*
X004065Y011183D01*
X004077Y011120D01*
X004086Y011058D01*
X004091Y010994D01*
X004093Y010931D01*
X003504Y011988D02*
X003454Y012042D01*
X003406Y012097D01*
X003361Y012156D01*
X003320Y012216D01*
X003281Y012279D01*
X003246Y012344D01*
X003214Y012410D01*
X003186Y012478D01*
X003162Y012547D01*
X003141Y012618D01*
X003124Y012689D01*
X003110Y012761D01*
X003101Y012834D01*
X003095Y012908D01*
X003093Y012981D01*
X003093Y014150D01*
X003093Y014600D01*
X005093Y014150D02*
X005093Y013927D01*
X005325Y013368D02*
X008083Y010610D01*
X008104Y010593D01*
X008126Y010578D01*
X008150Y010566D01*
X008176Y010557D01*
X008202Y010552D01*
X008229Y010550D01*
X008486Y010457D02*
X010013Y008931D01*
X011209Y010000D02*
X016993Y010000D01*
X016993Y012000D02*
X015037Y012000D01*
X014972Y011998D01*
X014908Y011992D01*
X014844Y011982D01*
X014781Y011969D01*
X014719Y011952D01*
X014658Y011930D01*
X014598Y011906D01*
X014540Y011877D01*
X014483Y011846D01*
X014429Y011811D01*
X014377Y011772D01*
X014327Y011731D01*
X014280Y011687D01*
X013331Y011250D02*
X010247Y011250D01*
X011193Y012250D02*
X011193Y012500D01*
X010779Y012915D01*
X010247Y011250D02*
X010163Y011252D01*
X010079Y011258D01*
X009996Y011267D01*
X009913Y011281D01*
X009830Y011298D01*
X009749Y011319D01*
X009669Y011344D01*
X009590Y011373D01*
X009512Y011405D01*
X009436Y011441D01*
X009361Y011480D01*
X009289Y011523D01*
X009218Y011569D01*
X009150Y011618D01*
X009084Y011670D01*
X009021Y011725D01*
X008960Y011783D01*
X007293Y013451D01*
X007093Y013932D02*
X007093Y014150D01*
X006242Y013600D02*
X006212Y013633D01*
X006185Y013668D01*
X006161Y013706D01*
X006141Y013745D01*
X006124Y013787D01*
X006110Y013829D01*
X006101Y013872D01*
X006095Y013917D01*
X006093Y013961D01*
X006093Y014150D01*
X005093Y013927D02*
X005095Y013875D01*
X005100Y013824D01*
X005108Y013773D01*
X005120Y013722D01*
X005135Y013673D01*
X005153Y013624D01*
X005175Y013577D01*
X005199Y013531D01*
X005226Y013488D01*
X005256Y013445D01*
X005289Y013405D01*
X005325Y013368D01*
X006243Y013601D02*
X008878Y010966D01*
X008485Y010457D02*
X008459Y010481D01*
X008430Y010502D01*
X008399Y010519D01*
X008366Y010532D01*
X008332Y010542D01*
X008297Y010548D01*
X008262Y010550D01*
X010331Y013100D02*
X010381Y013098D01*
X010430Y013092D01*
X010479Y013083D01*
X010526Y013069D01*
X010573Y013052D01*
X010618Y013031D01*
X010661Y013007D01*
X010702Y012979D01*
X010741Y012949D01*
X010778Y012915D01*
X008878Y010966D02*
X008988Y010860D01*
X009103Y010761D01*
X009222Y010666D01*
X009346Y010577D01*
X009473Y010494D01*
X009605Y010417D01*
X009739Y010346D01*
X009877Y010281D01*
X010018Y010223D01*
X010161Y010171D01*
X010307Y010126D01*
X010454Y010088D01*
X010603Y010056D01*
X010753Y010032D01*
X010905Y010014D01*
X011057Y010004D01*
X011209Y010000D01*
X010013Y008931D02*
X010119Y008829D01*
X010230Y008733D01*
X010345Y008642D01*
X010464Y008556D01*
X010587Y008476D01*
X010714Y008402D01*
X010843Y008333D01*
X010976Y008271D01*
X011112Y008215D01*
X011250Y008165D01*
X011390Y008121D01*
X011532Y008084D01*
X011676Y008054D01*
X011821Y008030D01*
X011967Y008014D01*
X012113Y008003D01*
X012260Y008000D01*
X016993Y008000D01*
X014206Y011613D02*
X014156Y011565D01*
X014103Y011520D01*
X014047Y011478D01*
X013990Y011440D01*
X013930Y011404D01*
X013868Y011373D01*
X013805Y011344D01*
X013740Y011319D01*
X013674Y011298D01*
X013606Y011281D01*
X013538Y011267D01*
X013470Y011258D01*
X013400Y011252D01*
X013331Y011250D01*
X012925Y013300D02*
X015261Y013300D01*
X015828Y013535D02*
X016122Y013829D01*
X016536Y014000D02*
X016993Y014000D01*
X016536Y014000D02*
X016490Y013998D01*
X016444Y013993D01*
X016399Y013984D01*
X016355Y013971D01*
X016312Y013955D01*
X016270Y013936D01*
X016230Y013914D01*
X016192Y013888D01*
X016156Y013860D01*
X016122Y013829D01*
X015828Y013535D02*
X015790Y013499D01*
X015749Y013466D01*
X015707Y013435D01*
X015662Y013407D01*
X015616Y013383D01*
X015568Y013361D01*
X015519Y013343D01*
X015469Y013327D01*
X015417Y013315D01*
X015366Y013307D01*
X015313Y013302D01*
X015261Y013300D01*
X015093Y014670D02*
X015095Y014743D01*
X015101Y014816D01*
X015110Y014889D01*
X015124Y014961D01*
X015141Y015033D01*
X015162Y015103D01*
X015186Y015172D01*
X015214Y015240D01*
X015246Y015306D01*
X015281Y015370D01*
X015319Y015433D01*
X015361Y015493D01*
X015405Y015552D01*
X015453Y015607D01*
X015503Y015661D01*
X015504Y015660D02*
X015593Y015750D01*
X015843Y016354D02*
X015843Y019150D01*
X015093Y019279D02*
X015093Y017150D01*
X015843Y016354D02*
X015841Y016298D01*
X015836Y016243D01*
X015827Y016187D01*
X015814Y016133D01*
X015798Y016079D01*
X015778Y016027D01*
X015755Y015976D01*
X015729Y015927D01*
X015699Y015880D01*
X015667Y015834D01*
X015631Y015791D01*
X015593Y015750D01*
X012925Y013300D02*
X012868Y013302D01*
X012812Y013308D01*
X012756Y013317D01*
X012701Y013331D01*
X012646Y013348D01*
X012594Y013369D01*
X012542Y013393D01*
X012493Y013421D01*
X012445Y013452D01*
X012400Y013487D01*
X012357Y013524D01*
X012317Y013564D01*
X012280Y013607D01*
X012245Y013652D01*
X012214Y013700D01*
X012186Y013749D01*
X012162Y013801D01*
X012141Y013853D01*
X012124Y013908D01*
X012110Y013963D01*
X012101Y014019D01*
X012095Y014075D01*
X012093Y014132D01*
X010324Y013100D02*
X010257Y013102D01*
X010190Y013107D01*
X010124Y013116D01*
X010058Y013128D01*
X009992Y013144D01*
X009928Y013163D01*
X009865Y013185D01*
X009803Y013211D01*
X009742Y013240D01*
X009683Y013272D01*
X009626Y013307D01*
X009571Y013345D01*
X009518Y013385D01*
X009467Y013429D01*
X009418Y013475D01*
X009093Y013800D01*
X009093Y014150D01*
X007292Y013451D02*
X007259Y013487D01*
X007229Y013524D01*
X007201Y013564D01*
X007176Y013606D01*
X007154Y013650D01*
X007136Y013694D01*
X007121Y013740D01*
X007109Y013787D01*
X007100Y013835D01*
X007095Y013883D01*
X007093Y013932D01*
X011093Y017400D02*
X009693Y018800D01*
X010693Y018800D02*
X012093Y017400D01*
X015886Y021193D02*
X016993Y022300D01*
X015886Y021192D02*
X015794Y021096D01*
X015707Y020996D01*
X015626Y020891D01*
X015549Y020782D01*
X015478Y020670D01*
X015413Y020555D01*
X015353Y020436D01*
X015299Y020315D01*
X015251Y020191D01*
X015210Y020065D01*
X015174Y019937D01*
X015145Y019807D01*
X015122Y019676D01*
X015106Y019544D01*
X015096Y019412D01*
X015093Y019279D01*
X015843Y019150D02*
X015845Y019217D01*
X015851Y019284D01*
X015860Y019350D01*
X015874Y019415D01*
X015891Y019480D01*
X015912Y019543D01*
X015937Y019605D01*
X015965Y019666D01*
X015997Y019725D01*
X016032Y019782D01*
X016071Y019837D01*
X016112Y019889D01*
X016157Y019939D01*
X016204Y019986D01*
X016254Y020031D01*
X016306Y020072D01*
X016361Y020111D01*
X016418Y020146D01*
X016477Y020178D01*
X016538Y020206D01*
X016600Y020231D01*
X016663Y020252D01*
X016728Y020269D01*
X016793Y020283D01*
X016859Y020292D01*
X016926Y020298D01*
X016993Y020300D01*
D21*
X019993Y020300D02*
X021620Y020300D01*
X021620Y020800D02*
X022393Y020800D01*
X023093Y020300D02*
X023667Y020300D01*
X023093Y020300D02*
X023049Y020298D01*
X023006Y020292D01*
X022964Y020283D01*
X022922Y020270D01*
X022882Y020253D01*
X022843Y020233D01*
X022806Y020210D01*
X022772Y020183D01*
X022739Y020154D01*
X022710Y020121D01*
X022683Y020087D01*
X022660Y020050D01*
X022640Y020011D01*
X022623Y019971D01*
X022610Y019929D01*
X022601Y019887D01*
X022595Y019844D01*
X022593Y019800D01*
X022591Y019756D01*
X022585Y019713D01*
X022576Y019671D01*
X022563Y019629D01*
X022546Y019589D01*
X022526Y019550D01*
X022503Y019513D01*
X022476Y019479D01*
X022447Y019446D01*
X022414Y019417D01*
X022380Y019390D01*
X022343Y019367D01*
X022304Y019347D01*
X022264Y019330D01*
X022222Y019317D01*
X022180Y019308D01*
X022137Y019302D01*
X022093Y019300D01*
X021620Y019300D01*
X019993Y019300D01*
X019993Y018300D02*
X020034Y018262D01*
X020077Y018226D01*
X020123Y018194D01*
X020170Y018164D01*
X020219Y018138D01*
X020270Y018115D01*
X020322Y018095D01*
X020376Y018079D01*
X020430Y018066D01*
X020486Y018057D01*
X020541Y018052D01*
X020597Y018050D01*
X021620Y018050D01*
X021620Y017550D02*
X020893Y017550D01*
X020007Y016287D02*
X020062Y016234D01*
X020120Y016183D01*
X020180Y016136D01*
X020243Y016091D01*
X020307Y016049D01*
X020373Y016010D01*
X020441Y015974D01*
X020511Y015942D01*
X020582Y015912D01*
X020654Y015886D01*
X020727Y015863D01*
X020801Y015844D01*
X020877Y015828D01*
X020952Y015816D01*
X021029Y015807D01*
X021105Y015802D01*
X021182Y015800D01*
X021620Y015800D01*
X021620Y015300D02*
X020893Y015300D01*
X021017Y014800D02*
X021620Y014800D01*
X022101Y014800D01*
X022144Y014802D01*
X022186Y014807D01*
X022228Y014817D01*
X022269Y014830D01*
X022309Y014846D01*
X022347Y014866D01*
X022383Y014889D01*
X022417Y014915D01*
X022449Y014944D01*
X022478Y014976D01*
X022504Y015010D01*
X022527Y015046D01*
X022547Y015084D01*
X022563Y015124D01*
X022576Y015165D01*
X022586Y015207D01*
X022591Y015249D01*
X022593Y015292D01*
X022593Y015496D01*
X022595Y015530D01*
X022601Y015564D01*
X022610Y015596D01*
X022623Y015628D01*
X022640Y015658D01*
X022659Y015686D01*
X022682Y015711D01*
X022707Y015734D01*
X022735Y015753D01*
X022765Y015770D01*
X022797Y015783D01*
X022829Y015792D01*
X022863Y015798D01*
X022897Y015800D01*
X023667Y015800D01*
X023667Y014800D02*
X026793Y014800D01*
X026806Y014798D01*
X026818Y014793D01*
X026828Y014785D01*
X026836Y014775D01*
X026841Y014763D01*
X026843Y014750D01*
X027743Y014750D01*
X027756Y014752D01*
X027768Y014757D01*
X027778Y014765D01*
X027786Y014775D01*
X027791Y014787D01*
X027793Y014800D01*
X030093Y014800D01*
X030133Y014840D01*
X030133Y013760D02*
X029212Y012839D01*
X030133Y012670D02*
X031253Y013210D01*
X031993Y013950D01*
X031993Y015800D01*
X031323Y016470D01*
X031253Y016470D01*
X031993Y017210D01*
X031993Y019100D01*
X031253Y019730D01*
X030133Y019190D01*
X028968Y020355D01*
X029470Y020943D02*
X030133Y020280D01*
X029449Y018784D02*
X030133Y018100D01*
X030113Y017000D02*
X025893Y017000D01*
X025843Y017050D01*
X024993Y017050D01*
X023667Y017050D01*
X023065Y018050D02*
X023024Y018048D01*
X022983Y018043D01*
X022943Y018034D01*
X022904Y018022D01*
X022866Y018006D01*
X022829Y017987D01*
X022794Y017965D01*
X022762Y017940D01*
X022731Y017912D01*
X022703Y017881D01*
X022678Y017849D01*
X022656Y017814D01*
X022637Y017777D01*
X022621Y017739D01*
X022609Y017700D01*
X022600Y017660D01*
X022595Y017619D01*
X022593Y017578D01*
X022591Y017534D01*
X022586Y017491D01*
X022577Y017448D01*
X022564Y017407D01*
X022549Y017366D01*
X022529Y017327D01*
X022507Y017289D01*
X022482Y017254D01*
X022453Y017220D01*
X022423Y017190D01*
X022389Y017161D01*
X022354Y017136D01*
X022316Y017114D01*
X022277Y017094D01*
X022236Y017079D01*
X022195Y017066D01*
X022152Y017057D01*
X022109Y017052D01*
X022065Y017050D01*
X021620Y017050D01*
X020577Y017050D01*
X020007Y017286D02*
X019993Y017300D01*
X020007Y017286D02*
X020046Y017250D01*
X020086Y017217D01*
X020129Y017186D01*
X020174Y017158D01*
X020221Y017133D01*
X020269Y017111D01*
X020318Y017093D01*
X020368Y017077D01*
X020420Y017065D01*
X020472Y017057D01*
X020524Y017052D01*
X020577Y017050D01*
X019993Y016300D02*
X020007Y016287D01*
X020123Y015171D02*
X020171Y015125D01*
X020221Y015082D01*
X020273Y015042D01*
X020328Y015004D01*
X020385Y014969D01*
X020443Y014938D01*
X020502Y014909D01*
X020564Y014884D01*
X020626Y014862D01*
X020690Y014843D01*
X020754Y014828D01*
X020819Y014816D01*
X020885Y014807D01*
X020951Y014802D01*
X021017Y014800D01*
X020714Y013650D02*
X020656Y013652D01*
X020597Y013658D01*
X020540Y013667D01*
X020483Y013680D01*
X020427Y013697D01*
X020372Y013718D01*
X020319Y013742D01*
X020267Y013770D01*
X020217Y013801D01*
X020170Y013835D01*
X020125Y013872D01*
X020082Y013912D01*
X020081Y013912D02*
X019993Y014000D01*
X020714Y013650D02*
X021620Y013650D01*
X021620Y013150D02*
X020893Y013150D01*
X020705Y012650D02*
X020648Y012652D01*
X020591Y012657D01*
X020535Y012667D01*
X020479Y012680D01*
X020424Y012696D01*
X020371Y012716D01*
X020319Y012740D01*
X020269Y012767D01*
X020220Y012797D01*
X020174Y012830D01*
X020129Y012867D01*
X020088Y012906D01*
X019993Y013000D01*
X020705Y012650D02*
X021620Y012650D01*
X022119Y012650D01*
X022160Y012652D01*
X022201Y012657D01*
X022242Y012666D01*
X022281Y012679D01*
X022319Y012694D01*
X022356Y012714D01*
X022391Y012736D01*
X022424Y012761D01*
X022454Y012789D01*
X022482Y012819D01*
X022507Y012852D01*
X022529Y012887D01*
X022549Y012924D01*
X022564Y012962D01*
X022577Y013001D01*
X022586Y013042D01*
X022591Y013083D01*
X022593Y013124D01*
X022593Y013330D01*
X022595Y013363D01*
X022600Y013397D01*
X022609Y013429D01*
X022621Y013460D01*
X022636Y013490D01*
X022654Y013518D01*
X022675Y013544D01*
X022699Y013568D01*
X022725Y013589D01*
X022753Y013607D01*
X022783Y013622D01*
X022814Y013634D01*
X022846Y013643D01*
X022880Y013648D01*
X022913Y013650D01*
X023667Y013650D01*
X023667Y012650D02*
X024993Y012650D01*
X025893Y012650D01*
X025893Y012700D01*
X026859Y012300D02*
X027911Y012300D01*
X028758Y011265D02*
X027793Y010300D01*
X027743Y010350D01*
X026843Y010350D01*
X026793Y010400D01*
X023667Y010400D01*
X023065Y011400D02*
X023024Y011398D01*
X022983Y011393D01*
X022943Y011384D01*
X022904Y011372D01*
X022866Y011356D01*
X022829Y011337D01*
X022794Y011315D01*
X022762Y011290D01*
X022731Y011262D01*
X022703Y011231D01*
X022678Y011199D01*
X022656Y011164D01*
X022637Y011127D01*
X022621Y011089D01*
X022609Y011050D01*
X022600Y011010D01*
X022595Y010969D01*
X022593Y010928D01*
X022593Y010872D01*
X022594Y010872D02*
X022592Y010831D01*
X022587Y010790D01*
X022578Y010750D01*
X022566Y010711D01*
X022550Y010673D01*
X022531Y010636D01*
X022509Y010601D01*
X022484Y010569D01*
X022456Y010538D01*
X022425Y010510D01*
X022393Y010485D01*
X022358Y010463D01*
X022321Y010444D01*
X022283Y010428D01*
X022244Y010416D01*
X022204Y010407D01*
X022163Y010402D01*
X022122Y010400D01*
X021620Y010400D01*
X020918Y010400D01*
X020364Y010629D02*
X019993Y011000D01*
X020353Y011640D02*
X019993Y012000D01*
X020353Y011640D02*
X020392Y011603D01*
X020434Y011569D01*
X020477Y011538D01*
X020523Y011510D01*
X020570Y011485D01*
X020619Y011462D01*
X020669Y011444D01*
X020721Y011428D01*
X020773Y011416D01*
X020826Y011407D01*
X020879Y011402D01*
X020933Y011400D01*
X021620Y011400D01*
X021620Y010900D02*
X020893Y010900D01*
X020918Y010400D02*
X020867Y010402D01*
X020816Y010407D01*
X020765Y010415D01*
X020715Y010427D01*
X020666Y010442D01*
X020618Y010460D01*
X020572Y010481D01*
X020527Y010505D01*
X020483Y010532D01*
X020441Y010562D01*
X020402Y010594D01*
X020364Y010629D01*
X019993Y010000D02*
X020603Y009390D01*
X021183Y009150D02*
X021620Y009150D01*
X021620Y009650D02*
X022393Y009650D01*
X022393Y009700D01*
X022954Y009150D02*
X023667Y009150D01*
X022954Y009150D02*
X022916Y009148D01*
X022879Y009142D01*
X022842Y009132D01*
X022807Y009119D01*
X022774Y009102D01*
X022742Y009081D01*
X022712Y009057D01*
X022686Y009031D01*
X022662Y009001D01*
X022641Y008969D01*
X022624Y008936D01*
X022611Y008901D01*
X022601Y008864D01*
X022595Y008827D01*
X022593Y008789D01*
X022593Y008611D01*
X022591Y008571D01*
X022586Y008531D01*
X022577Y008492D01*
X022565Y008453D01*
X022550Y008416D01*
X022531Y008380D01*
X022510Y008347D01*
X022485Y008315D01*
X022458Y008285D01*
X022428Y008258D01*
X022396Y008233D01*
X022362Y008212D01*
X022327Y008193D01*
X022290Y008178D01*
X022251Y008166D01*
X022212Y008157D01*
X022172Y008152D01*
X022132Y008150D01*
X021620Y008150D01*
X020898Y008150D01*
X020489Y008352D02*
X019993Y009000D01*
X020489Y008352D02*
X020516Y008319D01*
X020547Y008289D01*
X020579Y008261D01*
X020614Y008235D01*
X020651Y008213D01*
X020689Y008194D01*
X020729Y008178D01*
X020770Y008166D01*
X020812Y008157D01*
X020855Y008152D01*
X020898Y008150D01*
X020893Y008650D02*
X021620Y008650D01*
X021620Y007400D02*
X022393Y007400D01*
X022913Y006900D02*
X023667Y006900D01*
X022913Y006900D02*
X022880Y006898D01*
X022846Y006893D01*
X022814Y006884D01*
X022783Y006872D01*
X022753Y006857D01*
X022725Y006839D01*
X022699Y006818D01*
X022675Y006794D01*
X022654Y006768D01*
X022636Y006740D01*
X022621Y006710D01*
X022609Y006679D01*
X022600Y006647D01*
X022595Y006613D01*
X022593Y006580D01*
X022593Y006361D01*
X022591Y006321D01*
X022586Y006281D01*
X022577Y006242D01*
X022565Y006203D01*
X022550Y006166D01*
X022531Y006130D01*
X022510Y006097D01*
X022485Y006065D01*
X022458Y006035D01*
X022428Y006008D01*
X022396Y005983D01*
X022362Y005962D01*
X022327Y005943D01*
X022290Y005928D01*
X022251Y005916D01*
X022212Y005907D01*
X022172Y005902D01*
X022132Y005900D01*
X021620Y005900D01*
X020911Y005900D01*
X020893Y006400D02*
X021620Y006400D01*
X021620Y006900D02*
X021255Y006900D01*
X020979Y007014D02*
X019993Y008000D01*
X019993Y007000D02*
X019993Y006818D01*
X019995Y006760D01*
X020000Y006703D01*
X020009Y006646D01*
X020022Y006590D01*
X020038Y006534D01*
X020057Y006480D01*
X020080Y006427D01*
X020107Y006376D01*
X020136Y006326D01*
X020168Y006278D01*
X020204Y006233D01*
X020242Y006190D01*
X020283Y006149D01*
X020326Y006111D01*
X020371Y006075D01*
X020419Y006043D01*
X020469Y006014D01*
X020520Y005987D01*
X020573Y005964D01*
X020627Y005945D01*
X020683Y005929D01*
X020739Y005916D01*
X020796Y005907D01*
X020853Y005902D01*
X020911Y005900D01*
X021255Y006900D02*
X021217Y006902D01*
X021179Y006908D01*
X021141Y006917D01*
X021105Y006930D01*
X021071Y006946D01*
X021038Y006966D01*
X021007Y006989D01*
X020979Y007015D01*
X023667Y005900D02*
X026693Y005900D01*
X026793Y005800D01*
X027693Y005800D01*
X027693Y005880D01*
X030133Y008320D01*
X030133Y009410D02*
X031253Y009950D01*
X031993Y010690D01*
X031993Y012500D01*
X031283Y013210D01*
X031253Y013210D01*
X030133Y011580D02*
X029519Y011580D01*
X029459Y011578D01*
X029399Y011573D01*
X029339Y011565D01*
X029280Y011553D01*
X029221Y011538D01*
X029164Y011520D01*
X029107Y011498D01*
X029052Y011473D01*
X028999Y011446D01*
X028947Y011415D01*
X028896Y011382D01*
X028848Y011345D01*
X028802Y011306D01*
X028758Y011265D01*
X028846Y009953D02*
X028797Y009906D01*
X028746Y009863D01*
X028692Y009822D01*
X028636Y009785D01*
X028577Y009750D01*
X028517Y009719D01*
X028456Y009692D01*
X028393Y009668D01*
X028328Y009647D01*
X028263Y009630D01*
X028197Y009617D01*
X028130Y009608D01*
X028063Y009602D01*
X027995Y009600D01*
X026815Y009600D01*
X026757Y009598D01*
X026699Y009593D01*
X026642Y009584D01*
X026586Y009571D01*
X026530Y009555D01*
X026476Y009535D01*
X026422Y009512D01*
X026371Y009486D01*
X026321Y009456D01*
X026273Y009424D01*
X026227Y009388D01*
X026184Y009350D01*
X026143Y009309D01*
X026105Y009266D01*
X026069Y009220D01*
X026037Y009172D01*
X026007Y009122D01*
X025981Y009071D01*
X025958Y009017D01*
X025938Y008963D01*
X025922Y008907D01*
X025909Y008851D01*
X025900Y008794D01*
X025895Y008736D01*
X025893Y008678D01*
X025893Y008100D01*
X025843Y008150D01*
X024993Y008150D01*
X023667Y008150D01*
X021183Y009150D02*
X021129Y009152D01*
X021076Y009157D01*
X021023Y009166D01*
X020971Y009178D01*
X020919Y009194D01*
X020869Y009212D01*
X020820Y009235D01*
X020773Y009260D01*
X020727Y009288D01*
X020684Y009319D01*
X020642Y009353D01*
X020603Y009390D01*
X023065Y011400D02*
X023667Y011400D01*
X022393Y011900D02*
X021620Y011900D01*
X021620Y014150D02*
X022393Y014150D01*
X022393Y014200D01*
X020123Y015170D02*
X019993Y015300D01*
X021620Y016300D02*
X022393Y016300D01*
X023065Y018050D02*
X023667Y018050D01*
X023667Y019300D02*
X026793Y019300D01*
X026843Y019250D01*
X027643Y019250D01*
X027693Y019200D01*
X028445Y019200D01*
X028968Y020355D02*
X028924Y020397D01*
X028877Y020436D01*
X028828Y020472D01*
X028777Y020505D01*
X028725Y020535D01*
X028670Y020561D01*
X028614Y020585D01*
X028556Y020604D01*
X028498Y020621D01*
X028438Y020634D01*
X028378Y020643D01*
X028318Y020648D01*
X028257Y020650D01*
X027843Y020650D01*
X028126Y021500D02*
X025893Y021500D01*
X025843Y021550D01*
X024993Y021550D01*
X023667Y021550D01*
X022694Y022103D02*
X022696Y022144D01*
X022702Y022185D01*
X022711Y022225D01*
X022724Y022264D01*
X022741Y022302D01*
X022761Y022338D01*
X022784Y022372D01*
X022811Y022404D01*
X022840Y022433D01*
X022872Y022460D01*
X022906Y022483D01*
X022942Y022503D01*
X022980Y022520D01*
X023019Y022533D01*
X023059Y022542D01*
X023100Y022548D01*
X023141Y022550D01*
X023667Y022550D01*
X022393Y023000D02*
X022393Y023050D01*
X021620Y023050D01*
X021620Y022550D02*
X020597Y022550D01*
X020893Y022050D02*
X021620Y022050D01*
X021620Y021550D02*
X022141Y021550D01*
X021620Y021550D02*
X020597Y021550D01*
X019993Y022300D02*
X020034Y022338D01*
X020077Y022374D01*
X020123Y022406D01*
X020170Y022436D01*
X020219Y022462D01*
X020270Y022485D01*
X020322Y022505D01*
X020376Y022521D01*
X020430Y022534D01*
X020486Y022543D01*
X020541Y022548D01*
X020597Y022550D01*
X022141Y021550D02*
X022187Y021552D01*
X022232Y021558D01*
X022277Y021567D01*
X022321Y021580D01*
X022363Y021597D01*
X022404Y021617D01*
X022443Y021640D01*
X022481Y021667D01*
X022516Y021696D01*
X022548Y021728D01*
X022577Y021763D01*
X022604Y021801D01*
X022627Y021840D01*
X022647Y021881D01*
X022664Y021923D01*
X022677Y021967D01*
X022686Y022012D01*
X022692Y022057D01*
X022694Y022103D01*
X020597Y021550D02*
X020541Y021548D01*
X020486Y021543D01*
X020430Y021534D01*
X020376Y021521D01*
X020322Y021505D01*
X020270Y021485D01*
X020219Y021462D01*
X020170Y021436D01*
X020123Y021406D01*
X020077Y021374D01*
X020034Y021338D01*
X019993Y021300D01*
X020893Y019800D02*
X021620Y019800D01*
X021620Y018550D02*
X022393Y018550D01*
X022393Y018600D01*
X027911Y012300D02*
X027996Y012302D01*
X028081Y012308D01*
X028165Y012318D01*
X028249Y012331D01*
X028332Y012349D01*
X028415Y012370D01*
X028496Y012395D01*
X028576Y012424D01*
X028654Y012457D01*
X028731Y012493D01*
X028806Y012533D01*
X028880Y012576D01*
X028951Y012622D01*
X029020Y012672D01*
X029086Y012724D01*
X029151Y012780D01*
X029212Y012839D01*
X026859Y012300D02*
X026788Y012302D01*
X026716Y012307D01*
X026645Y012317D01*
X026575Y012330D01*
X026505Y012347D01*
X026437Y012367D01*
X026369Y012391D01*
X026303Y012418D01*
X026239Y012449D01*
X026176Y012483D01*
X026115Y012520D01*
X026056Y012561D01*
X025999Y012604D01*
X025945Y012651D01*
X025893Y012700D01*
X028846Y009953D02*
X029157Y010264D01*
X029727Y010500D02*
X030133Y010500D01*
X029727Y010500D02*
X029674Y010498D01*
X029622Y010493D01*
X029570Y010485D01*
X029518Y010473D01*
X029468Y010457D01*
X029419Y010439D01*
X029371Y010417D01*
X029324Y010392D01*
X029279Y010364D01*
X029236Y010333D01*
X029196Y010300D01*
X029157Y010264D01*
X030133Y015930D02*
X031253Y016470D01*
X029449Y018784D02*
X029395Y018835D01*
X029339Y018884D01*
X029280Y018929D01*
X029218Y018971D01*
X029155Y019010D01*
X029090Y019045D01*
X029023Y019077D01*
X028954Y019106D01*
X028884Y019131D01*
X028813Y019152D01*
X028740Y019169D01*
X028667Y019183D01*
X028593Y019192D01*
X028519Y019198D01*
X028445Y019200D01*
X029470Y020944D02*
X029406Y021004D01*
X029340Y021062D01*
X029271Y021116D01*
X029200Y021167D01*
X029126Y021215D01*
X029051Y021260D01*
X028973Y021301D01*
X028893Y021338D01*
X028812Y021372D01*
X028730Y021402D01*
X028646Y021427D01*
X028561Y021450D01*
X028475Y021468D01*
X028388Y021482D01*
X028301Y021492D01*
X028214Y021498D01*
X028126Y021500D01*
X015093Y014670D02*
X015093Y014150D01*
X012093Y014150D02*
X012093Y014132D01*
X010331Y013100D02*
X010324Y013100D01*
X008262Y010550D02*
X008229Y010550D01*
X014206Y011613D02*
X014280Y011687D01*
X012093Y017150D02*
X012093Y017400D01*
X011093Y017400D02*
X011093Y017150D01*
D22*
X020893Y017550D03*
X022393Y018600D03*
X020893Y019800D03*
X022393Y020800D03*
X020893Y022050D03*
X022393Y023000D03*
X027843Y020650D03*
X022393Y016300D03*
X020893Y015300D03*
X022393Y014200D03*
X020893Y013150D03*
X022393Y011900D03*
X020893Y010900D03*
X022393Y009700D03*
X020893Y008650D03*
X022393Y007400D03*
X020893Y006400D03*
M02*
